solid OpenSCAD_Model
  facet normal -0.994522 -0.104529 0
    outer loop
      vertex -1.95 0.475717 5.62
      vertex -2.30427 3.84637 30.62
      vertex -2.30427 3.84637 5.62
    endloop
  endfacet
  facet normal -0.994522 -0.104529 0
    outer loop
      vertex -2.30427 3.84637 30.62
      vertex -1.95 0.475717 5.62
      vertex -1.95 0.475717 30.62
    endloop
  endfacet
  facet normal 0.994522 -0.104529 0
    outer loop
      vertex -38.9 0 30.62
      vertex -38.4957 3.84637 5.62
      vertex -38.4957 3.84637 30.62
    endloop
  endfacet
  facet normal 0.994522 -0.104529 0
    outer loop
      vertex -38.4957 3.84637 5.62
      vertex -38.9 0 30.62
      vertex -38.9 0 5.62
    endloop
  endfacet
  facet normal 0 -1 0
    outer loop
      vertex -22.3338 18.3987 5.62
      vertex -18.4662 18.3987 30.62
      vertex -22.3338 18.3987 30.62
    endloop
  endfacet
  facet normal 0 -1 -0
    outer loop
      vertex -18.4662 18.3987 30.62
      vertex -22.3338 18.3987 5.62
      vertex -18.4662 18.3987 5.62
    endloop
  endfacet
  facet normal 0 1 -0
    outer loop
      vertex -18.4662 -18.3987 5.62
      vertex -22.3338 -18.3987 30.62
      vertex -18.4662 -18.3987 30.62
    endloop
  endfacet
  facet normal 0 1 0
    outer loop
      vertex -22.3338 -18.3987 30.62
      vertex -18.4662 -18.3987 5.62
      vertex -22.3338 -18.3987 5.62
    endloop
  endfacet
  facet normal -0.587785 -0.809017 0
    outer loop
      vertex -11.15 16.0215 5.62
      vertex -8.02108 13.7482 30.62
      vertex -11.15 16.0215 30.62
    endloop
  endfacet
  facet normal -0.587785 -0.809017 -0
    outer loop
      vertex -8.02108 13.7482 30.62
      vertex -11.15 16.0215 5.62
      vertex -8.02108 13.7482 5.62
    endloop
  endfacet
  facet normal -0.406737 -0.913545 0
    outer loop
      vertex -14.6832 17.5945 5.62
      vertex -11.15 16.0215 30.62
      vertex -14.6832 17.5945 30.62
    endloop
  endfacet
  facet normal -0.406737 -0.913545 -0
    outer loop
      vertex -11.15 16.0215 30.62
      vertex -14.6832 17.5945 5.62
      vertex -11.15 16.0215 5.62
    endloop
  endfacet
  facet normal 0.587785 -0.809017 0
    outer loop
      vertex -32.7789 13.7482 5.62
      vertex -29.65 16.0215 30.62
      vertex -32.7789 13.7482 30.62
    endloop
  endfacet
  facet normal 0.587785 -0.809017 0
    outer loop
      vertex -29.65 16.0215 30.62
      vertex -32.7789 13.7482 5.62
      vertex -29.65 16.0215 5.62
    endloop
  endfacet
  facet normal 0.207912 -0.978148 0
    outer loop
      vertex -26.1168 17.5945 5.62
      vertex -22.3338 18.3987 30.62
      vertex -26.1168 17.5945 30.62
    endloop
  endfacet
  facet normal 0.207912 -0.978148 0
    outer loop
      vertex -22.3338 18.3987 30.62
      vertex -26.1168 17.5945 5.62
      vertex -22.3338 18.3987 5.62
    endloop
  endfacet
  facet normal -0.866025 -0.5 0
    outer loop
      vertex -3.49941 7.52463 5.62
      vertex -5.43319 10.874 30.62
      vertex -5.43319 10.874 5.62
    endloop
  endfacet
  facet normal -0.866025 -0.5 0
    outer loop
      vertex -5.43319 10.874 30.62
      vertex -3.49941 7.52463 5.62
      vertex -3.49941 7.52463 30.62
    endloop
  endfacet
  facet normal -0.951057 -0.309017 0
    outer loop
      vertex -2.30427 3.84637 5.62
      vertex -3.49941 7.52463 30.62
      vertex -3.49941 7.52463 5.62
    endloop
  endfacet
  facet normal -0.951057 -0.309017 0
    outer loop
      vertex -3.49941 7.52463 30.62
      vertex -2.30427 3.84637 5.62
      vertex -2.30427 3.84637 30.62
    endloop
  endfacet
  facet normal -0.743145 -0.669131 0
    outer loop
      vertex -5.43319 10.874 5.62
      vertex -8.02108 13.7482 30.62
      vertex -8.02108 13.7482 5.62
    endloop
  endfacet
  facet normal -0.743145 -0.669131 0
    outer loop
      vertex -8.02108 13.7482 30.62
      vertex -5.43319 10.874 5.62
      vertex -5.43319 10.874 30.62
    endloop
  endfacet
  facet normal -0.207912 -0.978148 0
    outer loop
      vertex -18.4662 18.3987 5.62
      vertex -14.6832 17.5945 30.62
      vertex -18.4662 18.3987 30.62
    endloop
  endfacet
  facet normal -0.207912 -0.978148 -0
    outer loop
      vertex -14.6832 17.5945 30.62
      vertex -18.4662 18.3987 5.62
      vertex -14.6832 17.5945 5.62
    endloop
  endfacet
  facet normal 0.866025 -0.5 0
    outer loop
      vertex -37.3006 7.52463 30.62
      vertex -35.3668 10.874 5.62
      vertex -35.3668 10.874 30.62
    endloop
  endfacet
  facet normal 0.866025 -0.5 0
    outer loop
      vertex -35.3668 10.874 5.62
      vertex -37.3006 7.52463 30.62
      vertex -37.3006 7.52463 5.62
    endloop
  endfacet
  facet normal 0.743145 -0.669131 0
    outer loop
      vertex -35.3668 10.874 30.62
      vertex -32.7789 13.7482 5.62
      vertex -32.7789 13.7482 30.62
    endloop
  endfacet
  facet normal 0.743145 -0.669131 0
    outer loop
      vertex -32.7789 13.7482 5.62
      vertex -35.3668 10.874 30.62
      vertex -35.3668 10.874 5.62
    endloop
  endfacet
  facet normal 0.951056 -0.309017 0
    outer loop
      vertex -38.4957 3.84637 30.62
      vertex -37.3006 7.52463 5.62
      vertex -37.3006 7.52463 30.62
    endloop
  endfacet
  facet normal 0.951056 -0.309017 0
    outer loop
      vertex -37.3006 7.52463 5.62
      vertex -38.4957 3.84637 30.62
      vertex -38.4957 3.84637 5.62
    endloop
  endfacet
  facet normal 0 0 1
    outer loop
      vertex 44.2 23.1531 30.62
      vertex 43.7952 18.6529 30.62
      vertex 44.2 18.2033 30.62
    endloop
  endfacet
  facet normal 0 0 1
    outer loop
      vertex 39.55 21.7372 30.62
      vertex 44.2 23.1531 30.62
      vertex 41.5 25.1147 30.62
    endloop
  endfacet
  facet normal 0 0 1
    outer loop
      vertex 44.2 23.1531 30.62
      vertex 39.55 21.7372 30.62
      vertex 43.7952 18.6529 30.62
    endloop
  endfacet
  facet normal 0 0 1
    outer loop
      vertex 35.9615 27.5806 30.62
      vertex 39.55 21.7372 30.62
      vertex 41.5 25.1147 30.62
    endloop
  endfacet
  facet normal 0 0 1
    outer loop
      vertex 35.9615 27.5806 30.62
      vertex 34.7563 23.8715 30.62
      vertex 39.55 21.7372 30.62
    endloop
  endfacet
  facet normal 0 0 1
    outer loop
      vertex 30.0313 28.8411 30.62
      vertex 34.7563 23.8715 30.62
      vertex 35.9615 27.5806 30.62
    endloop
  endfacet
  facet normal 0 0 1
    outer loop
      vertex 30.0313 28.8411 30.62
      vertex 29.6237 24.9625 30.62
      vertex 34.7563 23.8715 30.62
    endloop
  endfacet
  facet normal 0 0 1
    outer loop
      vertex 30.0313 28.8411 30.62
      vertex 24.3763 24.9625 30.62
      vertex 29.6237 24.9625 30.62
    endloop
  endfacet
  facet normal -0 0 1
    outer loop
      vertex 23.9687 28.8411 30.62
      vertex 24.3763 24.9625 30.62
      vertex 30.0313 28.8411 30.62
    endloop
  endfacet
  facet normal 0 0 1
    outer loop
      vertex 23.9687 28.8411 30.62
      vertex 19.2437 23.8715 30.62
      vertex 24.3763 24.9625 30.62
    endloop
  endfacet
  facet normal -0 0 1
    outer loop
      vertex 18.0385 27.5806 30.62
      vertex 19.2437 23.8715 30.62
      vertex 23.9687 28.8411 30.62
    endloop
  endfacet
  facet normal 0 0 1
    outer loop
      vertex 18.0385 27.5806 30.62
      vertex 14.45 21.7372 30.62
      vertex 19.2437 23.8715 30.62
    endloop
  endfacet
  facet normal -0 0 1
    outer loop
      vertex 12.5 25.1147 30.62
      vertex 14.45 21.7372 30.62
      vertex 18.0385 27.5806 30.62
    endloop
  endfacet
  facet normal 0 0 1
    outer loop
      vertex 12.5 25.1147 30.62
      vertex 10.2048 18.6529 30.62
      vertex 14.45 21.7372 30.62
    endloop
  endfacet
  facet normal -0 0 1
    outer loop
      vertex 7.59521 21.5512 30.62
      vertex 10.2048 18.6529 30.62
      vertex 12.5 25.1147 30.62
    endloop
  endfacet
  facet normal 0 0 1
    outer loop
      vertex 7.59521 21.5512 30.62
      vertex 6.69367 14.7534 30.62
      vertex 10.2048 18.6529 30.62
    endloop
  endfacet
  facet normal -0 0 1
    outer loop
      vertex 3.53851 17.0458 30.62
      vertex 6.69367 14.7534 30.62
      vertex 7.59521 21.5512 30.62
    endloop
  endfacet
  facet normal 0 0 1
    outer loop
      vertex 6.69367 14.7534 30.62
      vertex 3.53851 17.0458 30.62
      vertex 4.07001 10.2091 30.62
    endloop
  endfacet
  facet normal -0 0 1
    outer loop
      vertex 0.507182 11.7954 30.62
      vertex 4.07001 10.2091 30.62
      vertex 3.53851 17.0458 30.62
    endloop
  endfacet
  facet normal 0 0 1
    outer loop
      vertex -0.210754 9.58578 30.62
      vertex 4.07001 10.2091 30.62
      vertex 0.507182 11.7954 30.62
    endloop
  endfacet
  facet normal 0 0 1
    outer loop
      vertex -2.30427 3.84637 30.62
      vertex 2.4485 5.21858 30.62
      vertex -0.210754 9.58578 30.62
    endloop
  endfacet
  facet normal 0 0 1
    outer loop
      vertex 4.07001 10.2091 30.62
      vertex -0.210754 9.58578 30.62
      vertex 2.4485 5.21858 30.62
    endloop
  endfacet
  facet normal 0 0 1
    outer loop
      vertex 2 0 30.62
      vertex 1.95 0.475714 30.62
      vertex 1.95 -0.475714 30.62
    endloop
  endfacet
  facet normal -0 0 1
    outer loop
      vertex 43.7952 -18.6529 30.62
      vertex 44.2 -23.1531 30.62
      vertex 44.2 -18.2033 30.62
    endloop
  endfacet
  facet normal -0 0 1
    outer loop
      vertex 39.55 -21.7372 30.62
      vertex 44.2 -23.1531 30.62
      vertex 43.7952 -18.6529 30.62
    endloop
  endfacet
  facet normal 0 0 1
    outer loop
      vertex 44.2 -23.1531 30.62
      vertex 39.55 -21.7372 30.62
      vertex 41.5 -25.1147 30.62
    endloop
  endfacet
  facet normal 0 0 1
    outer loop
      vertex 39.55 -21.7372 30.62
      vertex 35.9615 -27.5806 30.62
      vertex 41.5 -25.1147 30.62
    endloop
  endfacet
  facet normal -0 0 1
    outer loop
      vertex 34.7563 -23.8715 30.62
      vertex 35.9615 -27.5806 30.62
      vertex 39.55 -21.7372 30.62
    endloop
  endfacet
  facet normal 0 0 1
    outer loop
      vertex 34.7563 -23.8715 30.62
      vertex 30.0313 -28.8411 30.62
      vertex 35.9615 -27.5806 30.62
    endloop
  endfacet
  facet normal -0 0 1
    outer loop
      vertex 29.6237 -24.9625 30.62
      vertex 30.0313 -28.8411 30.62
      vertex 34.7563 -23.8715 30.62
    endloop
  endfacet
  facet normal -0 0 1
    outer loop
      vertex 24.3763 -24.9625 30.62
      vertex 30.0313 -28.8411 30.62
      vertex 29.6237 -24.9625 30.62
    endloop
  endfacet
  facet normal 0 0 1
    outer loop
      vertex 24.3763 -24.9625 30.62
      vertex 23.9687 -28.8411 30.62
      vertex 30.0313 -28.8411 30.62
    endloop
  endfacet
  facet normal 0 0 1
    outer loop
      vertex 19.2437 -23.8715 30.62
      vertex 23.9687 -28.8411 30.62
      vertex 24.3763 -24.9625 30.62
    endloop
  endfacet
  facet normal 0 0 1
    outer loop
      vertex 19.2437 -23.8715 30.62
      vertex 18.0385 -27.5806 30.62
      vertex 23.9687 -28.8411 30.62
    endloop
  endfacet
  facet normal 0 0 1
    outer loop
      vertex 14.45 -21.7372 30.62
      vertex 18.0385 -27.5806 30.62
      vertex 19.2437 -23.8715 30.62
    endloop
  endfacet
  facet normal 0 0 1
    outer loop
      vertex 14.45 -21.7372 30.62
      vertex 12.5 -25.1147 30.62
      vertex 18.0385 -27.5806 30.62
    endloop
  endfacet
  facet normal 0 0 1
    outer loop
      vertex 10.2048 -18.6529 30.62
      vertex 12.5 -25.1147 30.62
      vertex 14.45 -21.7372 30.62
    endloop
  endfacet
  facet normal 0 0 1
    outer loop
      vertex 10.2048 -18.6529 30.62
      vertex 7.59521 -21.5512 30.62
      vertex 12.5 -25.1147 30.62
    endloop
  endfacet
  facet normal 0 0 1
    outer loop
      vertex 6.69367 -14.7534 30.62
      vertex 7.59521 -21.5512 30.62
      vertex 10.2048 -18.6529 30.62
    endloop
  endfacet
  facet normal 0 0 1
    outer loop
      vertex 3.53851 -17.0458 30.62
      vertex 6.69367 -14.7534 30.62
      vertex 4.07001 -10.2091 30.62
    endloop
  endfacet
  facet normal 0 0 1
    outer loop
      vertex 6.69367 -14.7534 30.62
      vertex 3.53851 -17.0458 30.62
      vertex 7.59521 -21.5512 30.62
    endloop
  endfacet
  facet normal -0 0 1
    outer loop
      vertex -0.210754 -9.58578 30.62
      vertex 4.07001 -10.2091 30.62
      vertex 2.4485 -5.21858 30.62
    endloop
  endfacet
  facet normal -0 0 1
    outer loop
      vertex -2.30427 -3.84637 30.62
      vertex 2.4485 -5.21858 30.62
      vertex 1.95 -0.475714 30.62
    endloop
  endfacet
  facet normal 0 0 1
    outer loop
      vertex 2.4485 5.21858 30.62
      vertex -2.30427 3.84637 30.62
      vertex 1.95 0.475714 30.62
    endloop
  endfacet
  facet normal -0 -0 1
    outer loop
      vertex -1.95 0.475717 30.62
      vertex 1.95 0.475714 30.62
      vertex -2.30427 3.84637 30.62
    endloop
  endfacet
  facet normal 0 0 1
    outer loop
      vertex 4.07001 -10.2091 30.62
      vertex -0.210754 -9.58578 30.62
      vertex 0.507182 -11.7954 30.62
    endloop
  endfacet
  facet normal 0 0 1
    outer loop
      vertex 4.07001 -10.2091 30.62
      vertex 0.507182 -11.7954 30.62
      vertex 3.53851 -17.0458 30.62
    endloop
  endfacet
  facet normal 0 0 1
    outer loop
      vertex 1.95 0.475714 30.62
      vertex -2 0 30.62
      vertex 1.95 -0.475714 30.62
    endloop
  endfacet
  facet normal -0 0 1
    outer loop
      vertex -5.43319 10.874 30.62
      vertex -0.210754 9.58578 30.62
      vertex -2.27802 13.1664 30.62
    endloop
  endfacet
  facet normal 0 0 1
    outer loop
      vertex -2 0 30.62
      vertex 1.95 0.475714 30.62
      vertex -1.95 0.475717 30.62
    endloop
  endfacet
  facet normal 0 0 1
    outer loop
      vertex -0.210754 9.58578 30.62
      vertex -3.49941 7.52463 30.62
      vertex -2.30427 3.84637 30.62
    endloop
  endfacet
  facet normal 0 0 1
    outer loop
      vertex -5.43319 10.874 30.62
      vertex -2.27802 13.1664 30.62
      vertex -5.41147 16.6464 30.62
    endloop
  endfacet
  facet normal 0 0 1
    outer loop
      vertex -0.210754 9.58578 30.62
      vertex -5.43319 10.874 30.62
      vertex -3.49941 7.52463 30.62
    endloop
  endfacet
  facet normal 0 0 1
    outer loop
      vertex -5.41147 16.6464 30.62
      vertex -8.02108 13.7482 30.62
      vertex -5.43319 10.874 30.62
    endloop
  endfacet
  facet normal 0 0 1
    outer loop
      vertex -9.2 19.399 30.62
      vertex -8.02108 13.7482 30.62
      vertex -5.41147 16.6464 30.62
    endloop
  endfacet
  facet normal 0 0 1
    outer loop
      vertex -9.2 19.399 30.62
      vertex -11.15 16.0215 30.62
      vertex -8.02108 13.7482 30.62
    endloop
  endfacet
  facet normal 0 0 1
    outer loop
      vertex -13.478 21.3037 30.62
      vertex -11.15 16.0215 30.62
      vertex -9.2 19.399 30.62
    endloop
  endfacet
  facet normal 0 0 1
    outer loop
      vertex -13.478 21.3037 30.62
      vertex -14.6832 17.5945 30.62
      vertex -11.15 16.0215 30.62
    endloop
  endfacet
  facet normal 0 0 1
    outer loop
      vertex -18.0586 22.2773 30.62
      vertex -14.6832 17.5945 30.62
      vertex -13.478 21.3037 30.62
    endloop
  endfacet
  facet normal 0 0 1
    outer loop
      vertex -18.0586 22.2773 30.62
      vertex -18.4662 18.3987 30.62
      vertex -14.6832 17.5945 30.62
    endloop
  endfacet
  facet normal 0 0 1
    outer loop
      vertex -18.0586 22.2773 30.62
      vertex -22.3338 18.3987 30.62
      vertex -18.4662 18.3987 30.62
    endloop
  endfacet
  facet normal -0 0 1
    outer loop
      vertex -22.7414 22.2773 30.62
      vertex -22.3338 18.3987 30.62
      vertex -18.0586 22.2773 30.62
    endloop
  endfacet
  facet normal 0 0 1
    outer loop
      vertex -22.7414 22.2773 30.62
      vertex -26.1168 17.5945 30.62
      vertex -22.3338 18.3987 30.62
    endloop
  endfacet
  facet normal -0 0 1
    outer loop
      vertex -27.322 21.3037 30.62
      vertex -26.1168 17.5945 30.62
      vertex -22.7414 22.2773 30.62
    endloop
  endfacet
  facet normal 0 0 1
    outer loop
      vertex -27.322 21.3037 30.62
      vertex -29.65 16.0215 30.62
      vertex -26.1168 17.5945 30.62
    endloop
  endfacet
  facet normal -0 0 1
    outer loop
      vertex -31.6 19.399 30.62
      vertex -29.65 16.0215 30.62
      vertex -27.322 21.3037 30.62
    endloop
  endfacet
  facet normal 0 0 1
    outer loop
      vertex -31.6 19.399 30.62
      vertex -32.7789 13.7482 30.62
      vertex -29.65 16.0215 30.62
    endloop
  endfacet
  facet normal -0 0 1
    outer loop
      vertex -35.3885 16.6464 30.62
      vertex -32.7789 13.7482 30.62
      vertex -31.6 19.399 30.62
    endloop
  endfacet
  facet normal 0 0 1
    outer loop
      vertex -32.7789 13.7482 30.62
      vertex -35.3885 16.6464 30.62
      vertex -35.3668 10.874 30.62
    endloop
  endfacet
  facet normal -0 0 1
    outer loop
      vertex -38.522 13.1664 30.62
      vertex -35.3668 10.874 30.62
      vertex -35.3885 16.6464 30.62
    endloop
  endfacet
  facet normal 0 0 1
    outer loop
      vertex -35.3668 10.874 30.62
      vertex -38.522 13.1664 30.62
      vertex -37.3006 7.52463 30.62
    endloop
  endfacet
  facet normal -0 0 1
    outer loop
      vertex -40.8634 9.1109 30.62
      vertex -37.3006 7.52463 30.62
      vertex -38.522 13.1664 30.62
    endloop
  endfacet
  facet normal 0 0 1
    outer loop
      vertex -37.3006 7.52463 30.62
      vertex -40.8634 9.1109 30.62
      vertex -38.4957 3.84637 30.62
    endloop
  endfacet
  facet normal -0 0 1
    outer loop
      vertex -42.3105 4.65722 30.62
      vertex -38.4957 3.84637 30.62
      vertex -40.8634 9.1109 30.62
    endloop
  endfacet
  facet normal 0 0 1
    outer loop
      vertex 1.95 -0.475714 30.62
      vertex -2 0 30.62
      vertex -1.95 -0.475717 30.62
    endloop
  endfacet
  facet normal 0 0 1
    outer loop
      vertex -2.30427 -3.84637 30.62
      vertex 1.95 -0.475714 30.62
      vertex -1.95 -0.475717 30.62
    endloop
  endfacet
  facet normal 0 0 1
    outer loop
      vertex 2.4485 -5.21858 30.62
      vertex -2.30427 -3.84637 30.62
      vertex -0.210754 -9.58578 30.62
    endloop
  endfacet
  facet normal -0 0 1
    outer loop
      vertex -3.49941 -7.52463 30.62
      vertex -0.210754 -9.58578 30.62
      vertex -2.30427 -3.84637 30.62
    endloop
  endfacet
  facet normal 0 0 1
    outer loop
      vertex -5.43319 -10.874 30.62
      vertex -0.210754 -9.58578 30.62
      vertex -3.49941 -7.52463 30.62
    endloop
  endfacet
  facet normal 0 0 1
    outer loop
      vertex -0.210754 -9.58578 30.62
      vertex -5.43319 -10.874 30.62
      vertex -2.27802 -13.1664 30.62
    endloop
  endfacet
  facet normal 0 0 1
    outer loop
      vertex -2.27802 -13.1664 30.62
      vertex -5.43319 -10.874 30.62
      vertex -5.41147 -16.6464 30.62
    endloop
  endfacet
  facet normal -0 0 1
    outer loop
      vertex -8.02108 -13.7482 30.62
      vertex -5.41147 -16.6464 30.62
      vertex -5.43319 -10.874 30.62
    endloop
  endfacet
  facet normal 0 0 1
    outer loop
      vertex -8.02108 -13.7482 30.62
      vertex -9.2 -19.399 30.62
      vertex -5.41147 -16.6464 30.62
    endloop
  endfacet
  facet normal -0 0 1
    outer loop
      vertex -11.15 -16.0215 30.62
      vertex -9.2 -19.399 30.62
      vertex -8.02108 -13.7482 30.62
    endloop
  endfacet
  facet normal 0 0 1
    outer loop
      vertex -11.15 -16.0215 30.62
      vertex -13.478 -21.3037 30.62
      vertex -9.2 -19.399 30.62
    endloop
  endfacet
  facet normal -0 0 1
    outer loop
      vertex -14.6832 -17.5945 30.62
      vertex -13.478 -21.3037 30.62
      vertex -11.15 -16.0215 30.62
    endloop
  endfacet
  facet normal 0 0 1
    outer loop
      vertex -14.6832 -17.5945 30.62
      vertex -18.0586 -22.2773 30.62
      vertex -13.478 -21.3037 30.62
    endloop
  endfacet
  facet normal -0 0 1
    outer loop
      vertex -18.4662 -18.3987 30.62
      vertex -18.0586 -22.2773 30.62
      vertex -14.6832 -17.5945 30.62
    endloop
  endfacet
  facet normal -0 0 1
    outer loop
      vertex -22.3338 -18.3987 30.62
      vertex -18.0586 -22.2773 30.62
      vertex -18.4662 -18.3987 30.62
    endloop
  endfacet
  facet normal 0 0 1
    outer loop
      vertex -22.3338 -18.3987 30.62
      vertex -22.7414 -22.2773 30.62
      vertex -18.0586 -22.2773 30.62
    endloop
  endfacet
  facet normal 0 0 1
    outer loop
      vertex -26.1168 -17.5945 30.62
      vertex -22.7414 -22.2773 30.62
      vertex -22.3338 -18.3987 30.62
    endloop
  endfacet
  facet normal 0 0 1
    outer loop
      vertex -26.1168 -17.5945 30.62
      vertex -27.322 -21.3037 30.62
      vertex -22.7414 -22.2773 30.62
    endloop
  endfacet
  facet normal 0 0 1
    outer loop
      vertex -29.65 -16.0215 30.62
      vertex -27.322 -21.3037 30.62
      vertex -26.1168 -17.5945 30.62
    endloop
  endfacet
  facet normal 0 0 1
    outer loop
      vertex -29.65 -16.0215 30.62
      vertex -31.6 -19.399 30.62
      vertex -27.322 -21.3037 30.62
    endloop
  endfacet
  facet normal 0 0 1
    outer loop
      vertex -32.7789 -13.7482 30.62
      vertex -31.6 -19.399 30.62
      vertex -29.65 -16.0215 30.62
    endloop
  endfacet
  facet normal 0 0 1
    outer loop
      vertex -35.3885 -16.6464 30.62
      vertex -32.7789 -13.7482 30.62
      vertex -35.3668 -10.874 30.62
    endloop
  endfacet
  facet normal 0 0 1
    outer loop
      vertex -32.7789 -13.7482 30.62
      vertex -35.3885 -16.6464 30.62
      vertex -31.6 -19.399 30.62
    endloop
  endfacet
  facet normal 0 0 1
    outer loop
      vertex -38.522 -13.1664 30.62
      vertex -35.3668 -10.874 30.62
      vertex -37.3006 -7.52463 30.62
    endloop
  endfacet
  facet normal 0 0 1
    outer loop
      vertex -40.8634 -9.1109 30.62
      vertex -37.3006 -7.52463 30.62
      vertex -38.4957 -3.84637 30.62
    endloop
  endfacet
  facet normal 0 0 1
    outer loop
      vertex -35.3668 -10.874 30.62
      vertex -38.522 -13.1664 30.62
      vertex -35.3885 -16.6464 30.62
    endloop
  endfacet
  facet normal 0 0 1
    outer loop
      vertex -42.3105 -4.65722 30.62
      vertex -38.4957 -3.84637 30.62
      vertex -38.9 0 30.62
    endloop
  endfacet
  facet normal 0 0 1
    outer loop
      vertex -38.4957 3.84637 30.62
      vertex -42.3105 4.65722 30.62
      vertex -38.9 0 30.62
    endloop
  endfacet
  facet normal 0 0 1
    outer loop
      vertex -37.3006 -7.52463 30.62
      vertex -40.8634 -9.1109 30.62
      vertex -38.522 -13.1664 30.62
    endloop
  endfacet
  facet normal 0 0 1
    outer loop
      vertex -42.8 0 30.62
      vertex -38.9 0 30.62
      vertex -42.3105 4.65722 30.62
    endloop
  endfacet
  facet normal 0 0 1
    outer loop
      vertex -38.4957 -3.84637 30.62
      vertex -42.3105 -4.65722 30.62
      vertex -40.8634 -9.1109 30.62
    endloop
  endfacet
  facet normal 0 0 1
    outer loop
      vertex -38.9 0 30.62
      vertex -42.8 0 30.62
      vertex -42.3105 -4.65722 30.62
    endloop
  endfacet
  facet normal 0.406737 -0.913545 0
    outer loop
      vertex -29.65 16.0215 5.62
      vertex -26.1168 17.5945 30.62
      vertex -29.65 16.0215 30.62
    endloop
  endfacet
  facet normal 0.406737 -0.913545 0
    outer loop
      vertex -26.1168 17.5945 30.62
      vertex -29.65 16.0215 5.62
      vertex -26.1168 17.5945 5.62
    endloop
  endfacet
  facet normal -0.994522 0.104529 0
    outer loop
      vertex -2.30427 -3.84637 5.62
      vertex -1.95 -0.475717 30.62
      vertex -1.95 -0.475717 5.62
    endloop
  endfacet
  facet normal -0.994522 0.104529 0
    outer loop
      vertex -1.95 -0.475717 30.62
      vertex -2.30427 -3.84637 5.62
      vertex -2.30427 -3.84637 30.62
    endloop
  endfacet
  facet normal -0 0 1
    outer loop
      vertex -7.60953 1.89118 5.62
      vertex -1.95 0.475717 5.62
      vertex -2.30427 3.84637 5.62
    endloop
  endfacet
  facet normal -0 0 1
    outer loop
      vertex -7.31 0 5.62
      vertex -1.95 -0.475717 5.62
      vertex -2 0 5.62
    endloop
  endfacet
  facet normal 0 -0 1
    outer loop
      vertex -7.31 0 5.62
      vertex -1.95 0.475717 5.62
      vertex -7.60953 1.89118 5.62
    endloop
  endfacet
  facet normal 0 0 1
    outer loop
      vertex -8.47882 3.59725 5.62
      vertex -2.30427 3.84637 5.62
      vertex -3.49941 7.52463 5.62
    endloop
  endfacet
  facet normal 0 0 1
    outer loop
      vertex -1.95 0.475717 5.62
      vertex -7.31 0 5.62
      vertex -2 0 5.62
    endloop
  endfacet
  facet normal 0 0 1
    outer loop
      vertex -9.83275 4.95118 5.62
      vertex -3.49941 7.52463 5.62
      vertex -5.43319 10.874 5.62
    endloop
  endfacet
  facet normal 0 0 1
    outer loop
      vertex -1.95 -0.475717 5.62
      vertex -7.60953 -1.89118 5.62
      vertex -2.30427 -3.84637 5.62
    endloop
  endfacet
  facet normal -0 0 1
    outer loop
      vertex -8.47882 -3.59725 5.62
      vertex -2.30427 -3.84637 5.62
      vertex -7.60953 -1.89118 5.62
    endloop
  endfacet
  facet normal 0 0 1
    outer loop
      vertex -1.95 -0.475717 5.62
      vertex -7.31 0 5.62
      vertex -7.60953 -1.89118 5.62
    endloop
  endfacet
  facet normal 0 0 1
    outer loop
      vertex -11.5388 5.82047 5.62
      vertex -5.43319 10.874 5.62
      vertex -8.02108 13.7482 5.62
    endloop
  endfacet
  facet normal 0 0 1
    outer loop
      vertex -2.30427 3.84637 5.62
      vertex -8.47882 3.59725 5.62
      vertex -7.60953 1.89118 5.62
    endloop
  endfacet
  facet normal 0 0 1
    outer loop
      vertex -3.49941 7.52463 5.62
      vertex -9.83275 4.95118 5.62
      vertex -8.47882 3.59725 5.62
    endloop
  endfacet
  facet normal 0 0 1
    outer loop
      vertex -13.43 6.12 5.62
      vertex -8.02108 13.7482 5.62
      vertex -11.15 16.0215 5.62
    endloop
  endfacet
  facet normal 0 0 1
    outer loop
      vertex -5.43319 10.874 5.62
      vertex -11.5388 5.82047 5.62
      vertex -9.83275 4.95118 5.62
    endloop
  endfacet
  facet normal 0 0 1
    outer loop
      vertex -8.02108 13.7482 5.62
      vertex -13.43 6.12 5.62
      vertex -11.5388 5.82047 5.62
    endloop
  endfacet
  facet normal 0 0 1
    outer loop
      vertex -14.6832 17.5945 5.62
      vertex -13.43 6.12 5.62
      vertex -11.15 16.0215 5.62
    endloop
  endfacet
  facet normal 0 0 1
    outer loop
      vertex -14.6832 17.5945 5.62
      vertex -15.3212 5.82047 5.62
      vertex -13.43 6.12 5.62
    endloop
  endfacet
  facet normal 0 0 1
    outer loop
      vertex -18.4662 18.3987 5.62
      vertex -15.3212 5.82047 5.62
      vertex -14.6832 17.5945 5.62
    endloop
  endfacet
  facet normal 0 0 1
    outer loop
      vertex -15.3212 5.82047 5.62
      vertex -18.4662 18.3987 5.62
      vertex -17.0272 4.95118 5.62
    endloop
  endfacet
  facet normal -0 0 1
    outer loop
      vertex -22.3338 18.3987 5.62
      vertex -17.0272 4.95118 5.62
      vertex -18.4662 18.3987 5.62
    endloop
  endfacet
  facet normal -0 0 1
    outer loop
      vertex -26.1168 17.5945 5.62
      vertex -17.0272 4.95118 5.62
      vertex -22.3338 18.3987 5.62
    endloop
  endfacet
  facet normal 0 0 1
    outer loop
      vertex -17.0272 4.95118 5.62
      vertex -26.1168 17.5945 5.62
      vertex -18.3812 3.59725 5.62
    endloop
  endfacet
  facet normal -0 0 1
    outer loop
      vertex -29.65 16.0215 5.62
      vertex -18.3812 3.59725 5.62
      vertex -26.1168 17.5945 5.62
    endloop
  endfacet
  facet normal 0 0 1
    outer loop
      vertex -2.30427 -3.84637 5.62
      vertex -8.47882 -3.59725 5.62
      vertex -3.49941 -7.52463 5.62
    endloop
  endfacet
  facet normal -0 0 1
    outer loop
      vertex -9.83275 -4.95118 5.62
      vertex -3.49941 -7.52463 5.62
      vertex -8.47882 -3.59725 5.62
    endloop
  endfacet
  facet normal 0 0 1
    outer loop
      vertex -3.49941 -7.52463 5.62
      vertex -9.83275 -4.95118 5.62
      vertex -5.43319 -10.874 5.62
    endloop
  endfacet
  facet normal -0 0 1
    outer loop
      vertex -11.5388 -5.82047 5.62
      vertex -5.43319 -10.874 5.62
      vertex -9.83275 -4.95118 5.62
    endloop
  endfacet
  facet normal 0 0 1
    outer loop
      vertex -5.43319 -10.874 5.62
      vertex -11.5388 -5.82047 5.62
      vertex -8.02108 -13.7482 5.62
    endloop
  endfacet
  facet normal -0 0 1
    outer loop
      vertex -13.43 -6.12 5.62
      vertex -8.02108 -13.7482 5.62
      vertex -11.5388 -5.82047 5.62
    endloop
  endfacet
  facet normal 0 0 1
    outer loop
      vertex -8.02108 -13.7482 5.62
      vertex -13.43 -6.12 5.62
      vertex -11.15 -16.0215 5.62
    endloop
  endfacet
  facet normal 0 0 1
    outer loop
      vertex -13.43 -6.12 5.62
      vertex -14.6832 -17.5945 5.62
      vertex -11.15 -16.0215 5.62
    endloop
  endfacet
  facet normal 0 0 1
    outer loop
      vertex -15.3212 -5.82047 5.62
      vertex -14.6832 -17.5945 5.62
      vertex -13.43 -6.12 5.62
    endloop
  endfacet
  facet normal 0 0 1
    outer loop
      vertex -18.4662 -18.3987 5.62
      vertex -15.3212 -5.82047 5.62
      vertex -17.0272 -4.95118 5.62
    endloop
  endfacet
  facet normal 0 0 1
    outer loop
      vertex -26.1168 -17.5945 5.62
      vertex -17.0272 -4.95118 5.62
      vertex -18.3812 -3.59725 5.62
    endloop
  endfacet
  facet normal 0 0 1
    outer loop
      vertex -15.3212 -5.82047 5.62
      vertex -18.4662 -18.3987 5.62
      vertex -14.6832 -17.5945 5.62
    endloop
  endfacet
  facet normal 0 0 1
    outer loop
      vertex -32.7789 -13.7482 5.62
      vertex -18.3812 -3.59725 5.62
      vertex -19.2505 -1.89118 5.62
    endloop
  endfacet
  facet normal 0 0 1
    outer loop
      vertex -38.4957 -3.84637 5.62
      vertex -19.2505 -1.89118 5.62
      vertex -19.55 0 5.62
    endloop
  endfacet
  facet normal -0 0 1
    outer loop
      vertex -32.7789 13.7482 5.62
      vertex -18.3812 3.59725 5.62
      vertex -29.65 16.0215 5.62
    endloop
  endfacet
  facet normal 0 0 1
    outer loop
      vertex -17.0272 -4.95118 5.62
      vertex -22.3338 -18.3987 5.62
      vertex -18.4662 -18.3987 5.62
    endloop
  endfacet
  facet normal 0 0 1
    outer loop
      vertex -18.3812 3.59725 5.62
      vertex -32.7789 13.7482 5.62
      vertex -19.2505 1.89118 5.62
    endloop
  endfacet
  facet normal 0 0 1
    outer loop
      vertex -17.0272 -4.95118 5.62
      vertex -26.1168 -17.5945 5.62
      vertex -22.3338 -18.3987 5.62
    endloop
  endfacet
  facet normal -0 0 1
    outer loop
      vertex -35.3668 10.874 5.62
      vertex -19.2505 1.89118 5.62
      vertex -32.7789 13.7482 5.62
    endloop
  endfacet
  facet normal 0 0 1
    outer loop
      vertex -18.3812 -3.59725 5.62
      vertex -29.65 -16.0215 5.62
      vertex -26.1168 -17.5945 5.62
    endloop
  endfacet
  facet normal -0 0 1
    outer loop
      vertex -37.3006 7.52463 5.62
      vertex -19.2505 1.89118 5.62
      vertex -35.3668 10.874 5.62
    endloop
  endfacet
  facet normal 0 0 1
    outer loop
      vertex -18.3812 -3.59725 5.62
      vertex -32.7789 -13.7482 5.62
      vertex -29.65 -16.0215 5.62
    endloop
  endfacet
  facet normal -0 0 1
    outer loop
      vertex -38.4957 3.84637 5.62
      vertex -19.2505 1.89118 5.62
      vertex -37.3006 7.52463 5.62
    endloop
  endfacet
  facet normal 0 0 1
    outer loop
      vertex -19.2505 -1.89118 5.62
      vertex -35.3668 -10.874 5.62
      vertex -32.7789 -13.7482 5.62
    endloop
  endfacet
  facet normal 0 0 1
    outer loop
      vertex -19.2505 1.89118 5.62
      vertex -38.4957 3.84637 5.62
      vertex -19.55 0 5.62
    endloop
  endfacet
  facet normal 0 0 1
    outer loop
      vertex -19.2505 -1.89118 5.62
      vertex -37.3006 -7.52463 5.62
      vertex -35.3668 -10.874 5.62
    endloop
  endfacet
  facet normal 0 0 1
    outer loop
      vertex -38.9 0 5.62
      vertex -19.55 0 5.62
      vertex -38.4957 3.84637 5.62
    endloop
  endfacet
  facet normal 0 0 1
    outer loop
      vertex -19.2505 -1.89118 5.62
      vertex -38.4957 -3.84637 5.62
      vertex -37.3006 -7.52463 5.62
    endloop
  endfacet
  facet normal 0 0 1
    outer loop
      vertex -19.55 0 5.62
      vertex -38.9 0 5.62
      vertex -38.4957 -3.84637 5.62
    endloop
  endfacet
  facet normal -0.207912 0.978148 0
    outer loop
      vertex -14.6832 -17.5945 5.62
      vertex -18.4662 -18.3987 30.62
      vertex -14.6832 -17.5945 30.62
    endloop
  endfacet
  facet normal -0.207912 0.978148 0
    outer loop
      vertex -18.4662 -18.3987 30.62
      vertex -14.6832 -17.5945 5.62
      vertex -18.4662 -18.3987 5.62
    endloop
  endfacet
  facet normal -0.866025 0.5 0
    outer loop
      vertex -5.43319 -10.874 5.62
      vertex -3.49941 -7.52463 30.62
      vertex -3.49941 -7.52463 5.62
    endloop
  endfacet
  facet normal -0.866025 0.5 0
    outer loop
      vertex -3.49941 -7.52463 30.62
      vertex -5.43319 -10.874 5.62
      vertex -5.43319 -10.874 30.62
    endloop
  endfacet
  facet normal 0.587785 0.809017 -0
    outer loop
      vertex -29.65 -16.0215 5.62
      vertex -32.7789 -13.7482 30.62
      vertex -29.65 -16.0215 30.62
    endloop
  endfacet
  facet normal 0.587785 0.809017 0
    outer loop
      vertex -32.7789 -13.7482 30.62
      vertex -29.65 -16.0215 5.62
      vertex -32.7789 -13.7482 5.62
    endloop
  endfacet
  facet normal 0.866025 0.5 0
    outer loop
      vertex -35.3668 -10.874 30.62
      vertex -37.3006 -7.52463 5.62
      vertex -37.3006 -7.52463 30.62
    endloop
  endfacet
  facet normal 0.866025 0.5 0
    outer loop
      vertex -37.3006 -7.52463 5.62
      vertex -35.3668 -10.874 30.62
      vertex -35.3668 -10.874 5.62
    endloop
  endfacet
  facet normal 0.743145 0.669131 0
    outer loop
      vertex -32.7789 -13.7482 30.62
      vertex -35.3668 -10.874 5.62
      vertex -35.3668 -10.874 30.62
    endloop
  endfacet
  facet normal 0.743145 0.669131 0
    outer loop
      vertex -35.3668 -10.874 5.62
      vertex -32.7789 -13.7482 30.62
      vertex -32.7789 -13.7482 5.62
    endloop
  endfacet
  facet normal -0.587785 0.809017 0
    outer loop
      vertex -8.02108 -13.7482 5.62
      vertex -11.15 -16.0215 30.62
      vertex -8.02108 -13.7482 30.62
    endloop
  endfacet
  facet normal -0.587785 0.809017 0
    outer loop
      vertex -11.15 -16.0215 30.62
      vertex -8.02108 -13.7482 5.62
      vertex -11.15 -16.0215 5.62
    endloop
  endfacet
  facet normal -0.406737 0.913545 0
    outer loop
      vertex -11.15 -16.0215 5.62
      vertex -14.6832 -17.5945 30.62
      vertex -11.15 -16.0215 30.62
    endloop
  endfacet
  facet normal -0.406737 0.913545 0
    outer loop
      vertex -14.6832 -17.5945 30.62
      vertex -11.15 -16.0215 5.62
      vertex -14.6832 -17.5945 5.62
    endloop
  endfacet
  facet normal -0.951057 0.309017 0
    outer loop
      vertex -3.49941 -7.52463 5.62
      vertex -2.30427 -3.84637 30.62
      vertex -2.30427 -3.84637 5.62
    endloop
  endfacet
  facet normal -0.951057 0.309017 0
    outer loop
      vertex -2.30427 -3.84637 30.62
      vertex -3.49941 -7.52463 5.62
      vertex -3.49941 -7.52463 30.62
    endloop
  endfacet
  facet normal 0.207912 0.978148 -0
    outer loop
      vertex -22.3338 -18.3987 5.62
      vertex -26.1168 -17.5945 30.62
      vertex -22.3338 -18.3987 30.62
    endloop
  endfacet
  facet normal 0.207912 0.978148 0
    outer loop
      vertex -26.1168 -17.5945 30.62
      vertex -22.3338 -18.3987 5.62
      vertex -26.1168 -17.5945 5.62
    endloop
  endfacet
  facet normal 0.951056 0.309017 0
    outer loop
      vertex -37.3006 -7.52463 30.62
      vertex -38.4957 -3.84637 5.62
      vertex -38.4957 -3.84637 30.62
    endloop
  endfacet
  facet normal 0.951056 0.309017 0
    outer loop
      vertex -38.4957 -3.84637 5.62
      vertex -37.3006 -7.52463 30.62
      vertex -37.3006 -7.52463 5.62
    endloop
  endfacet
  facet normal 0.994522 0.104529 0
    outer loop
      vertex -38.4957 -3.84637 30.62
      vertex -38.9 0 5.62
      vertex -38.9 0 30.62
    endloop
  endfacet
  facet normal 0.994522 0.104529 0
    outer loop
      vertex -38.9 0 5.62
      vertex -38.4957 -3.84637 30.62
      vertex -38.4957 -3.84637 5.62
    endloop
  endfacet
  facet normal -0.743145 0.669131 0
    outer loop
      vertex -8.02108 -13.7482 5.62
      vertex -5.43319 -10.874 30.62
      vertex -5.43319 -10.874 5.62
    endloop
  endfacet
  facet normal -0.743145 0.669131 0
    outer loop
      vertex -5.43319 -10.874 30.62
      vertex -8.02108 -13.7482 5.62
      vertex -8.02108 -13.7482 30.62
    endloop
  endfacet
  facet normal 0.406737 0.913545 -0
    outer loop
      vertex -26.1168 -17.5945 5.62
      vertex -29.65 -16.0215 30.62
      vertex -26.1168 -17.5945 30.62
    endloop
  endfacet
  facet normal 0.406737 0.913545 0
    outer loop
      vertex -29.65 -16.0215 30.62
      vertex -26.1168 -17.5945 5.62
      vertex -29.65 -16.0215 5.62
    endloop
  endfacet
  facet normal -0.987688 -0.156434 0
    outer loop
      vertex -7.31 0 0
      vertex -7.60953 1.89118 5.62
      vertex -7.60953 1.89118 0
    endloop
  endfacet
  facet normal -0.987688 -0.156434 0
    outer loop
      vertex -7.60953 1.89118 5.62
      vertex -7.31 0 0
      vertex -7.31 0 5.62
    endloop
  endfacet
  facet normal 0.987688 -0.156434 0
    outer loop
      vertex -19.55 0 5.62
      vertex -19.2505 1.89118 0
      vertex -19.2505 1.89118 5.62
    endloop
  endfacet
  facet normal 0.987688 -0.156434 0
    outer loop
      vertex -19.2505 1.89118 0
      vertex -19.55 0 5.62
      vertex -19.55 0 0
    endloop
  endfacet
  facet normal -0.156435 -0.987688 0
    outer loop
      vertex -13.43 6.12 0
      vertex -11.5388 5.82047 5.62
      vertex -13.43 6.12 5.62
    endloop
  endfacet
  facet normal -0.156435 -0.987688 -0
    outer loop
      vertex -11.5388 5.82047 5.62
      vertex -13.43 6.12 0
      vertex -11.5388 5.82047 0
    endloop
  endfacet
  facet normal 0.156435 0.987688 -0
    outer loop
      vertex -13.43 -6.12 0
      vertex -15.3212 -5.82047 5.62
      vertex -13.43 -6.12 5.62
    endloop
  endfacet
  facet normal 0.156435 0.987688 0
    outer loop
      vertex -15.3212 -5.82047 5.62
      vertex -13.43 -6.12 0
      vertex -15.3212 -5.82047 0
    endloop
  endfacet
  facet normal 0 0 -1
    outer loop
      vertex 44.2 -23.1531 0
      vertex 43.7952 -18.6529 0
      vertex 44.2 -18.2033 0
    endloop
  endfacet
  facet normal 0 0 -1
    outer loop
      vertex 39.55 -21.7372 0
      vertex 44.2 -23.1531 0
      vertex 41.5 -25.1147 0
    endloop
  endfacet
  facet normal 0 0 -1
    outer loop
      vertex 44.2 -23.1531 0
      vertex 39.55 -21.7372 0
      vertex 43.7952 -18.6529 0
    endloop
  endfacet
  facet normal 0 0 -1
    outer loop
      vertex 35.9615 -27.5806 0
      vertex 39.55 -21.7372 0
      vertex 41.5 -25.1147 0
    endloop
  endfacet
  facet normal 0 0 -1
    outer loop
      vertex 35.9615 -27.5806 0
      vertex 34.7563 -23.8715 0
      vertex 39.55 -21.7372 0
    endloop
  endfacet
  facet normal 0 0 -1
    outer loop
      vertex 30.0313 -28.8411 0
      vertex 34.7563 -23.8715 0
      vertex 35.9615 -27.5806 0
    endloop
  endfacet
  facet normal 0 0 -1
    outer loop
      vertex 30.0313 -28.8411 0
      vertex 29.6237 -24.9625 0
      vertex 34.7563 -23.8715 0
    endloop
  endfacet
  facet normal 0 0 -1
    outer loop
      vertex 30.0313 -28.8411 0
      vertex 24.3763 -24.9625 0
      vertex 29.6237 -24.9625 0
    endloop
  endfacet
  facet normal 0 0 -1
    outer loop
      vertex 23.9687 -28.8411 0
      vertex 24.3763 -24.9625 0
      vertex 30.0313 -28.8411 0
    endloop
  endfacet
  facet normal 0 0 -1
    outer loop
      vertex 23.9687 -28.8411 0
      vertex 19.2437 -23.8715 0
      vertex 24.3763 -24.9625 0
    endloop
  endfacet
  facet normal 0 0 -1
    outer loop
      vertex 18.0385 -27.5806 0
      vertex 19.2437 -23.8715 0
      vertex 23.9687 -28.8411 0
    endloop
  endfacet
  facet normal 0 0 -1
    outer loop
      vertex 18.0385 -27.5806 0
      vertex 14.45 -21.7372 0
      vertex 19.2437 -23.8715 0
    endloop
  endfacet
  facet normal 0 0 -1
    outer loop
      vertex 12.5 -25.1147 0
      vertex 14.45 -21.7372 0
      vertex 18.0385 -27.5806 0
    endloop
  endfacet
  facet normal 0 0 -1
    outer loop
      vertex 12.5 -25.1147 0
      vertex 10.2048 -18.6529 0
      vertex 14.45 -21.7372 0
    endloop
  endfacet
  facet normal 0 0 -1
    outer loop
      vertex 7.59521 -21.5512 0
      vertex 10.2048 -18.6529 0
      vertex 12.5 -25.1147 0
    endloop
  endfacet
  facet normal 0 0 -1
    outer loop
      vertex 7.59521 -21.5512 0
      vertex 6.69367 -14.7534 0
      vertex 10.2048 -18.6529 0
    endloop
  endfacet
  facet normal 0 0 -1
    outer loop
      vertex 3.53851 -17.0458 0
      vertex 6.69367 -14.7534 0
      vertex 7.59521 -21.5512 0
    endloop
  endfacet
  facet normal -0 0 -1
    outer loop
      vertex 6.69367 -14.7534 0
      vertex 3.53851 -17.0458 0
      vertex 4.07001 -10.2091 0
    endloop
  endfacet
  facet normal 0 0 -1
    outer loop
      vertex 0.507182 -11.7954 0
      vertex 4.07001 -10.2091 0
      vertex 3.53851 -17.0458 0
    endloop
  endfacet
  facet normal 0 0 -1
    outer loop
      vertex -0.210754 -9.58578 0
      vertex 4.07001 -10.2091 0
      vertex 0.507182 -11.7954 0
    endloop
  endfacet
  facet normal 0 0 -1
    outer loop
      vertex -7.60953 -1.89118 0
      vertex 2.4485 -5.21858 0
      vertex -0.210754 -9.58578 0
    endloop
  endfacet
  facet normal 0 0 -1
    outer loop
      vertex 4.07001 -10.2091 0
      vertex -0.210754 -9.58578 0
      vertex 2.4485 -5.21858 0
    endloop
  endfacet
  facet normal -0 0 -1
    outer loop
      vertex 2 0 0
      vertex 1.95 -0.475714 0
      vertex 1.95 0.475714 0
    endloop
  endfacet
  facet normal 0 0 -1
    outer loop
      vertex 43.7952 18.6529 0
      vertex 44.2 23.1531 0
      vertex 44.2 18.2033 0
    endloop
  endfacet
  facet normal 0 0 -1
    outer loop
      vertex 39.55 21.7372 0
      vertex 44.2 23.1531 0
      vertex 43.7952 18.6529 0
    endloop
  endfacet
  facet normal -0 0 -1
    outer loop
      vertex 44.2 23.1531 0
      vertex 39.55 21.7372 0
      vertex 41.5 25.1147 0
    endloop
  endfacet
  facet normal 0 0 -1
    outer loop
      vertex 39.55 21.7372 0
      vertex 35.9615 27.5806 0
      vertex 41.5 25.1147 0
    endloop
  endfacet
  facet normal 0 0 -1
    outer loop
      vertex 34.7563 23.8715 0
      vertex 35.9615 27.5806 0
      vertex 39.55 21.7372 0
    endloop
  endfacet
  facet normal 0 0 -1
    outer loop
      vertex 34.7563 23.8715 0
      vertex 30.0313 28.8411 0
      vertex 35.9615 27.5806 0
    endloop
  endfacet
  facet normal 0 0 -1
    outer loop
      vertex 29.6237 24.9625 0
      vertex 30.0313 28.8411 0
      vertex 34.7563 23.8715 0
    endloop
  endfacet
  facet normal 0 0 -1
    outer loop
      vertex 24.3763 24.9625 0
      vertex 30.0313 28.8411 0
      vertex 29.6237 24.9625 0
    endloop
  endfacet
  facet normal 0 0 -1
    outer loop
      vertex 24.3763 24.9625 0
      vertex 23.9687 28.8411 0
      vertex 30.0313 28.8411 0
    endloop
  endfacet
  facet normal 0 0 -1
    outer loop
      vertex 19.2437 23.8715 0
      vertex 23.9687 28.8411 0
      vertex 24.3763 24.9625 0
    endloop
  endfacet
  facet normal 0 0 -1
    outer loop
      vertex 19.2437 23.8715 0
      vertex 18.0385 27.5806 0
      vertex 23.9687 28.8411 0
    endloop
  endfacet
  facet normal 0 0 -1
    outer loop
      vertex 14.45 21.7372 0
      vertex 18.0385 27.5806 0
      vertex 19.2437 23.8715 0
    endloop
  endfacet
  facet normal 0 0 -1
    outer loop
      vertex 14.45 21.7372 0
      vertex 12.5 25.1147 0
      vertex 18.0385 27.5806 0
    endloop
  endfacet
  facet normal 0 0 -1
    outer loop
      vertex 10.2048 18.6529 0
      vertex 12.5 25.1147 0
      vertex 14.45 21.7372 0
    endloop
  endfacet
  facet normal 0 0 -1
    outer loop
      vertex 10.2048 18.6529 0
      vertex 7.59521 21.5512 0
      vertex 12.5 25.1147 0
    endloop
  endfacet
  facet normal 0 0 -1
    outer loop
      vertex 6.69367 14.7534 0
      vertex 7.59521 21.5512 0
      vertex 10.2048 18.6529 0
    endloop
  endfacet
  facet normal 0 0 -1
    outer loop
      vertex 3.53851 17.0458 0
      vertex 6.69367 14.7534 0
      vertex 4.07001 10.2091 0
    endloop
  endfacet
  facet normal 0 0 -1
    outer loop
      vertex 6.69367 14.7534 0
      vertex 3.53851 17.0458 0
      vertex 7.59521 21.5512 0
    endloop
  endfacet
  facet normal 0 0 -1
    outer loop
      vertex -0.210754 9.58578 0
      vertex 4.07001 10.2091 0
      vertex 2.4485 5.21858 0
    endloop
  endfacet
  facet normal 0 0 -1
    outer loop
      vertex -7.60953 1.89118 0
      vertex 2.4485 5.21858 0
      vertex 1.95 0.475714 0
    endloop
  endfacet
  facet normal 0 0 -1
    outer loop
      vertex 2.4485 -5.21858 0
      vertex -7.60953 -1.89118 0
      vertex 1.95 -0.475714 0
    endloop
  endfacet
  facet normal 0 -0 -1
    outer loop
      vertex -7.31 0 0
      vertex 1.95 -0.475714 0
      vertex -7.60953 -1.89118 0
    endloop
  endfacet
  facet normal -0 0 -1
    outer loop
      vertex 4.07001 10.2091 0
      vertex -0.210754 9.58578 0
      vertex 0.507182 11.7954 0
    endloop
  endfacet
  facet normal 0 0 -1
    outer loop
      vertex 4.07001 10.2091 0
      vertex 0.507182 11.7954 0
      vertex 3.53851 17.0458 0
    endloop
  endfacet
  facet normal 0 0 -1
    outer loop
      vertex -9.83275 -4.95118 0
      vertex -0.210754 -9.58578 0
      vertex -2.27802 -13.1664 0
    endloop
  endfacet
  facet normal 0 0 -1
    outer loop
      vertex -7.60953 1.89118 0
      vertex 1.95 0.475714 0
      vertex -7.31 0 0
    endloop
  endfacet
  facet normal 0 0 -1
    outer loop
      vertex -11.5388 -5.82047 0
      vertex -2.27802 -13.1664 0
      vertex -5.41147 -16.6464 0
    endloop
  endfacet
  facet normal -0 0 -1
    outer loop
      vertex 2.4485 5.21858 0
      vertex -7.60953 1.89118 0
      vertex -0.210754 9.58578 0
    endloop
  endfacet
  facet normal 0 0 -1
    outer loop
      vertex -8.47882 3.59725 0
      vertex -0.210754 9.58578 0
      vertex -7.60953 1.89118 0
    endloop
  endfacet
  facet normal 0 0 -1
    outer loop
      vertex 1.95 -0.475714 0
      vertex -7.31 0 0
      vertex 1.95 0.475714 0
    endloop
  endfacet
  facet normal 0 0 -1
    outer loop
      vertex -0.210754 -9.58578 0
      vertex -8.47882 -3.59725 0
      vertex -7.60953 -1.89118 0
    endloop
  endfacet
  facet normal 0 0 -1
    outer loop
      vertex -11.5388 -5.82047 0
      vertex -5.41147 -16.6464 0
      vertex -9.2 -19.399 0
    endloop
  endfacet
  facet normal 0 0 -1
    outer loop
      vertex -0.210754 -9.58578 0
      vertex -9.83275 -4.95118 0
      vertex -8.47882 -3.59725 0
    endloop
  endfacet
  facet normal 0 0 -1
    outer loop
      vertex -2.27802 -13.1664 0
      vertex -11.5388 -5.82047 0
      vertex -9.83275 -4.95118 0
    endloop
  endfacet
  facet normal 0 0 -1
    outer loop
      vertex -9.2 -19.399 0
      vertex -13.43 -6.12 0
      vertex -11.5388 -5.82047 0
    endloop
  endfacet
  facet normal 0 0 -1
    outer loop
      vertex -13.478 -21.3037 0
      vertex -13.43 -6.12 0
      vertex -9.2 -19.399 0
    endloop
  endfacet
  facet normal 0 0 -1
    outer loop
      vertex -13.478 -21.3037 0
      vertex -15.3212 -5.82047 0
      vertex -13.43 -6.12 0
    endloop
  endfacet
  facet normal 0 0 -1
    outer loop
      vertex -18.0586 -22.2773 0
      vertex -15.3212 -5.82047 0
      vertex -13.478 -21.3037 0
    endloop
  endfacet
  facet normal -0 0 -1
    outer loop
      vertex -15.3212 -5.82047 0
      vertex -18.0586 -22.2773 0
      vertex -17.0272 -4.95118 0
    endloop
  endfacet
  facet normal 0 0 -1
    outer loop
      vertex -22.7414 -22.2773 0
      vertex -17.0272 -4.95118 0
      vertex -18.0586 -22.2773 0
    endloop
  endfacet
  facet normal 0 0 -1
    outer loop
      vertex -27.322 -21.3037 0
      vertex -17.0272 -4.95118 0
      vertex -22.7414 -22.2773 0
    endloop
  endfacet
  facet normal -0 0 -1
    outer loop
      vertex -17.0272 -4.95118 0
      vertex -27.322 -21.3037 0
      vertex -18.3812 -3.59725 0
    endloop
  endfacet
  facet normal 0 0 -1
    outer loop
      vertex -31.6 -19.399 0
      vertex -18.3812 -3.59725 0
      vertex -27.322 -21.3037 0
    endloop
  endfacet
  facet normal 0 0 -1
    outer loop
      vertex -9.83275 4.95118 0
      vertex -0.210754 9.58578 0
      vertex -8.47882 3.59725 0
    endloop
  endfacet
  facet normal -0 0 -1
    outer loop
      vertex -0.210754 9.58578 0
      vertex -9.83275 4.95118 0
      vertex -2.27802 13.1664 0
    endloop
  endfacet
  facet normal 0 0 -1
    outer loop
      vertex -11.5388 5.82047 0
      vertex -2.27802 13.1664 0
      vertex -9.83275 4.95118 0
    endloop
  endfacet
  facet normal -0 0 -1
    outer loop
      vertex -2.27802 13.1664 0
      vertex -11.5388 5.82047 0
      vertex -5.41147 16.6464 0
    endloop
  endfacet
  facet normal -0 0 -1
    outer loop
      vertex -5.41147 16.6464 0
      vertex -11.5388 5.82047 0
      vertex -9.2 19.399 0
    endloop
  endfacet
  facet normal 0 0 -1
    outer loop
      vertex -13.43 6.12 0
      vertex -9.2 19.399 0
      vertex -11.5388 5.82047 0
    endloop
  endfacet
  facet normal 0 0 -1
    outer loop
      vertex -13.43 6.12 0
      vertex -13.478 21.3037 0
      vertex -9.2 19.399 0
    endloop
  endfacet
  facet normal 0 0 -1
    outer loop
      vertex -15.3212 5.82047 0
      vertex -13.478 21.3037 0
      vertex -13.43 6.12 0
    endloop
  endfacet
  facet normal 0 0 -1
    outer loop
      vertex -18.0586 22.2773 0
      vertex -15.3212 5.82047 0
      vertex -17.0272 4.95118 0
    endloop
  endfacet
  facet normal 0 0 -1
    outer loop
      vertex -15.3212 5.82047 0
      vertex -18.0586 22.2773 0
      vertex -13.478 21.3037 0
    endloop
  endfacet
  facet normal 0 0 -1
    outer loop
      vertex -27.322 21.3037 0
      vertex -17.0272 4.95118 0
      vertex -18.3812 3.59725 0
    endloop
  endfacet
  facet normal 0 0 -1
    outer loop
      vertex -35.3885 16.6464 0
      vertex -18.3812 3.59725 0
      vertex -19.2505 1.89118 0
    endloop
  endfacet
  facet normal 0 0 -1
    outer loop
      vertex -42.3105 4.65722 0
      vertex -19.2505 1.89118 0
      vertex -19.55 0 0
    endloop
  endfacet
  facet normal 0 0 -1
    outer loop
      vertex -35.3885 -16.6464 0
      vertex -18.3812 -3.59725 0
      vertex -31.6 -19.399 0
    endloop
  endfacet
  facet normal 0 0 -1
    outer loop
      vertex -17.0272 4.95118 0
      vertex -22.7414 22.2773 0
      vertex -18.0586 22.2773 0
    endloop
  endfacet
  facet normal -0 0 -1
    outer loop
      vertex -18.3812 -3.59725 0
      vertex -35.3885 -16.6464 0
      vertex -19.2505 -1.89118 0
    endloop
  endfacet
  facet normal 0 0 -1
    outer loop
      vertex -17.0272 4.95118 0
      vertex -27.322 21.3037 0
      vertex -22.7414 22.2773 0
    endloop
  endfacet
  facet normal 0 0 -1
    outer loop
      vertex -38.522 -13.1664 0
      vertex -19.2505 -1.89118 0
      vertex -35.3885 -16.6464 0
    endloop
  endfacet
  facet normal 0 0 -1
    outer loop
      vertex -18.3812 3.59725 0
      vertex -31.6 19.399 0
      vertex -27.322 21.3037 0
    endloop
  endfacet
  facet normal 0 0 -1
    outer loop
      vertex -40.8634 -9.1109 0
      vertex -19.2505 -1.89118 0
      vertex -38.522 -13.1664 0
    endloop
  endfacet
  facet normal 0 0 -1
    outer loop
      vertex -18.3812 3.59725 0
      vertex -35.3885 16.6464 0
      vertex -31.6 19.399 0
    endloop
  endfacet
  facet normal 0 0 -1
    outer loop
      vertex -42.3105 -4.65722 0
      vertex -19.2505 -1.89118 0
      vertex -40.8634 -9.1109 0
    endloop
  endfacet
  facet normal 0 0 -1
    outer loop
      vertex -19.2505 1.89118 0
      vertex -38.522 13.1664 0
      vertex -35.3885 16.6464 0
    endloop
  endfacet
  facet normal -0 0 -1
    outer loop
      vertex -19.2505 -1.89118 0
      vertex -42.3105 -4.65722 0
      vertex -19.55 0 0
    endloop
  endfacet
  facet normal 0 0 -1
    outer loop
      vertex -19.2505 1.89118 0
      vertex -40.8634 9.1109 0
      vertex -38.522 13.1664 0
    endloop
  endfacet
  facet normal 0 0 -1
    outer loop
      vertex -42.8 0 0
      vertex -19.55 0 0
      vertex -42.3105 -4.65722 0
    endloop
  endfacet
  facet normal 0 0 -1
    outer loop
      vertex -19.2505 1.89118 0
      vertex -42.3105 4.65722 0
      vertex -40.8634 9.1109 0
    endloop
  endfacet
  facet normal 0 0 -1
    outer loop
      vertex -19.55 0 0
      vertex -42.8 0 0
      vertex -42.3105 4.65722 0
    endloop
  endfacet
  facet normal -0.707107 -0.707107 0
    outer loop
      vertex -8.47882 3.59725 0
      vertex -9.83275 4.95118 5.62
      vertex -9.83275 4.95118 0
    endloop
  endfacet
  facet normal -0.707107 -0.707107 0
    outer loop
      vertex -9.83275 4.95118 5.62
      vertex -8.47882 3.59725 0
      vertex -8.47882 3.59725 5.62
    endloop
  endfacet
  facet normal -0.891007 -0.45399 0
    outer loop
      vertex -7.60953 1.89118 0
      vertex -8.47882 3.59725 5.62
      vertex -8.47882 3.59725 0
    endloop
  endfacet
  facet normal -0.891007 -0.45399 0
    outer loop
      vertex -8.47882 3.59725 5.62
      vertex -7.60953 1.89118 0
      vertex -7.60953 1.89118 5.62
    endloop
  endfacet
  facet normal -0.45399 -0.891007 0
    outer loop
      vertex -11.5388 5.82047 0
      vertex -9.83275 4.95118 5.62
      vertex -11.5388 5.82047 5.62
    endloop
  endfacet
  facet normal -0.45399 -0.891007 -0
    outer loop
      vertex -9.83275 4.95118 5.62
      vertex -11.5388 5.82047 0
      vertex -9.83275 4.95118 0
    endloop
  endfacet
  facet normal 0.45399 -0.891007 0
    outer loop
      vertex -17.0272 4.95118 0
      vertex -15.3212 5.82047 5.62
      vertex -17.0272 4.95118 5.62
    endloop
  endfacet
  facet normal 0.45399 -0.891007 0
    outer loop
      vertex -15.3212 5.82047 5.62
      vertex -17.0272 4.95118 0
      vertex -15.3212 5.82047 0
    endloop
  endfacet
  facet normal 0.156435 -0.987688 0
    outer loop
      vertex -15.3212 5.82047 0
      vertex -13.43 6.12 5.62
      vertex -15.3212 5.82047 5.62
    endloop
  endfacet
  facet normal 0.156435 -0.987688 0
    outer loop
      vertex -13.43 6.12 5.62
      vertex -15.3212 5.82047 0
      vertex -13.43 6.12 0
    endloop
  endfacet
  facet normal -0.891007 0.45399 0
    outer loop
      vertex -8.47882 -3.59725 0
      vertex -7.60953 -1.89118 5.62
      vertex -7.60953 -1.89118 0
    endloop
  endfacet
  facet normal -0.891007 0.45399 0
    outer loop
      vertex -7.60953 -1.89118 5.62
      vertex -8.47882 -3.59725 0
      vertex -8.47882 -3.59725 5.62
    endloop
  endfacet
  facet normal 0.707107 0.707107 0
    outer loop
      vertex -17.0272 -4.95118 5.62
      vertex -18.3812 -3.59725 0
      vertex -18.3812 -3.59725 5.62
    endloop
  endfacet
  facet normal 0.707107 0.707107 0
    outer loop
      vertex -18.3812 -3.59725 0
      vertex -17.0272 -4.95118 5.62
      vertex -17.0272 -4.95118 0
    endloop
  endfacet
  facet normal 0.987688 0.156434 0
    outer loop
      vertex -19.2505 -1.89118 5.62
      vertex -19.55 0 0
      vertex -19.55 0 5.62
    endloop
  endfacet
  facet normal 0.987688 0.156434 0
    outer loop
      vertex -19.55 0 0
      vertex -19.2505 -1.89118 5.62
      vertex -19.2505 -1.89118 0
    endloop
  endfacet
  facet normal 0.707107 -0.707107 0
    outer loop
      vertex -18.3812 3.59725 5.62
      vertex -17.0272 4.95118 0
      vertex -17.0272 4.95118 5.62
    endloop
  endfacet
  facet normal 0.707107 -0.707107 0
    outer loop
      vertex -17.0272 4.95118 0
      vertex -18.3812 3.59725 5.62
      vertex -18.3812 3.59725 0
    endloop
  endfacet
  facet normal 0.891006 -0.453991 0
    outer loop
      vertex -19.2505 1.89118 5.62
      vertex -18.3812 3.59725 0
      vertex -18.3812 3.59725 5.62
    endloop
  endfacet
  facet normal 0.891006 -0.453991 0
    outer loop
      vertex -18.3812 3.59725 0
      vertex -19.2505 1.89118 5.62
      vertex -19.2505 1.89118 0
    endloop
  endfacet
  facet normal -0.987688 0.156434 0
    outer loop
      vertex -7.60953 -1.89118 0
      vertex -7.31 0 5.62
      vertex -7.31 0 0
    endloop
  endfacet
  facet normal -0.987688 0.156434 0
    outer loop
      vertex -7.31 0 5.62
      vertex -7.60953 -1.89118 0
      vertex -7.60953 -1.89118 5.62
    endloop
  endfacet
  facet normal -0.156435 0.987688 0
    outer loop
      vertex -11.5388 -5.82047 0
      vertex -13.43 -6.12 5.62
      vertex -11.5388 -5.82047 5.62
    endloop
  endfacet
  facet normal -0.156435 0.987688 0
    outer loop
      vertex -13.43 -6.12 5.62
      vertex -11.5388 -5.82047 0
      vertex -13.43 -6.12 0
    endloop
  endfacet
  facet normal -0.707107 0.707107 0
    outer loop
      vertex -9.83275 -4.95118 0
      vertex -8.47882 -3.59725 5.62
      vertex -8.47882 -3.59725 0
    endloop
  endfacet
  facet normal -0.707107 0.707107 0
    outer loop
      vertex -8.47882 -3.59725 5.62
      vertex -9.83275 -4.95118 0
      vertex -9.83275 -4.95118 5.62
    endloop
  endfacet
  facet normal 0.45399 0.891007 -0
    outer loop
      vertex -15.3212 -5.82047 0
      vertex -17.0272 -4.95118 5.62
      vertex -15.3212 -5.82047 5.62
    endloop
  endfacet
  facet normal 0.45399 0.891007 0
    outer loop
      vertex -17.0272 -4.95118 5.62
      vertex -15.3212 -5.82047 0
      vertex -17.0272 -4.95118 0
    endloop
  endfacet
  facet normal 0.891006 0.453991 0
    outer loop
      vertex -18.3812 -3.59725 5.62
      vertex -19.2505 -1.89118 0
      vertex -19.2505 -1.89118 5.62
    endloop
  endfacet
  facet normal 0.891006 0.453991 0
    outer loop
      vertex -19.2505 -1.89118 0
      vertex -18.3812 -3.59725 5.62
      vertex -18.3812 -3.59725 0
    endloop
  endfacet
  facet normal -0.45399 0.891007 0
    outer loop
      vertex -9.83275 -4.95118 0
      vertex -11.5388 -5.82047 5.62
      vertex -9.83275 -4.95118 5.62
    endloop
  endfacet
  facet normal -0.45399 0.891007 0
    outer loop
      vertex -11.5388 -5.82047 5.62
      vertex -9.83275 -4.95118 0
      vertex -11.5388 -5.82047 0
    endloop
  endfacet
  facet normal 0.994522 0.104528 0
    outer loop
      vertex 2 0 30.62
      vertex 1.95 0.475714 0
      vertex 1.95 0.475714 30.62
    endloop
  endfacet
  facet normal 0.994522 0.104528 0
    outer loop
      vertex 1.95 0.475714 0
      vertex 2 0 30.62
      vertex 2 0 0
    endloop
  endfacet
  facet normal -0.994522 0.104529 0
    outer loop
      vertex -42.8 0 0
      vertex -42.3105 4.65722 30.62
      vertex -42.3105 4.65722 0
    endloop
  endfacet
  facet normal -0.994522 0.104529 0
    outer loop
      vertex -42.3105 4.65722 30.62
      vertex -42.8 0 0
      vertex -42.8 0 30.62
    endloop
  endfacet
  facet normal 0 1 -0
    outer loop
      vertex -18.0586 22.2773 0
      vertex -22.7414 22.2773 30.62
      vertex -18.0586 22.2773 30.62
    endloop
  endfacet
  facet normal 0 1 0
    outer loop
      vertex -22.7414 22.2773 30.62
      vertex -18.0586 22.2773 0
      vertex -22.7414 22.2773 0
    endloop
  endfacet
  facet normal 0 -1 0
    outer loop
      vertex -22.7414 -22.2773 0
      vertex -18.0586 -22.2773 30.62
      vertex -22.7414 -22.2773 30.62
    endloop
  endfacet
  facet normal 0 -1 -0
    outer loop
      vertex -18.0586 -22.2773 30.62
      vertex -22.7414 -22.2773 0
      vertex -18.0586 -22.2773 0
    endloop
  endfacet
  facet normal 0.587785 0.809017 -0
    outer loop
      vertex -5.41147 16.6464 0
      vertex -9.2 19.399 30.62
      vertex -5.41147 16.6464 30.62
    endloop
  endfacet
  facet normal 0.587785 0.809017 0
    outer loop
      vertex -9.2 19.399 30.62
      vertex -5.41147 16.6464 0
      vertex -9.2 19.399 0
    endloop
  endfacet
  facet normal -0.743145 0.669131 0
    outer loop
      vertex -38.522 13.1664 0
      vertex -35.3885 16.6464 30.62
      vertex -35.3885 16.6464 0
    endloop
  endfacet
  facet normal -0.743145 0.669131 0
    outer loop
      vertex -35.3885 16.6464 30.62
      vertex -38.522 13.1664 0
      vertex -38.522 13.1664 30.62
    endloop
  endfacet
  facet normal -0.406737 0.913545 0
    outer loop
      vertex -27.322 21.3037 0
      vertex -31.6 19.399 30.62
      vertex -27.322 21.3037 30.62
    endloop
  endfacet
  facet normal -0.406737 0.913545 0
    outer loop
      vertex -31.6 19.399 30.62
      vertex -27.322 21.3037 0
      vertex -31.6 19.399 0
    endloop
  endfacet
  facet normal 0.866025 0.5 0
    outer loop
      vertex -0.210754 9.58578 30.62
      vertex -2.27802 13.1664 0
      vertex -2.27802 13.1664 30.62
    endloop
  endfacet
  facet normal 0.866025 0.5 0
    outer loop
      vertex -2.27802 13.1664 0
      vertex -0.210754 9.58578 30.62
      vertex -0.210754 9.58578 0
    endloop
  endfacet
  facet normal 0.743145 0.669131 0
    outer loop
      vertex -2.27802 13.1664 30.62
      vertex -5.41147 16.6464 0
      vertex -5.41147 16.6464 30.62
    endloop
  endfacet
  facet normal 0.743145 0.669131 0
    outer loop
      vertex -5.41147 16.6464 0
      vertex -2.27802 13.1664 30.62
      vertex -2.27802 13.1664 0
    endloop
  endfacet
  facet normal 0.207912 0.978148 -0
    outer loop
      vertex -13.478 21.3037 0
      vertex -18.0586 22.2773 30.62
      vertex -13.478 21.3037 30.62
    endloop
  endfacet
  facet normal 0.207912 0.978148 0
    outer loop
      vertex -18.0586 22.2773 30.62
      vertex -13.478 21.3037 0
      vertex -18.0586 22.2773 0
    endloop
  endfacet
  facet normal 0.406737 0.913545 -0
    outer loop
      vertex -9.2 19.399 0
      vertex -13.478 21.3037 30.62
      vertex -9.2 19.399 30.62
    endloop
  endfacet
  facet normal 0.406737 0.913545 0
    outer loop
      vertex -13.478 21.3037 30.62
      vertex -9.2 19.399 0
      vertex -13.478 21.3037 0
    endloop
  endfacet
  facet normal -0.866025 0.5 0
    outer loop
      vertex -40.8634 9.1109 0
      vertex -38.522 13.1664 30.62
      vertex -38.522 13.1664 0
    endloop
  endfacet
  facet normal -0.866025 0.5 0
    outer loop
      vertex -38.522 13.1664 30.62
      vertex -40.8634 9.1109 0
      vertex -40.8634 9.1109 30.62
    endloop
  endfacet
  facet normal -0.951057 0.309017 0
    outer loop
      vertex -42.3105 4.65722 0
      vertex -40.8634 9.1109 30.62
      vertex -40.8634 9.1109 0
    endloop
  endfacet
  facet normal -0.951057 0.309017 0
    outer loop
      vertex -40.8634 9.1109 30.62
      vertex -42.3105 4.65722 0
      vertex -42.3105 4.65722 30.62
    endloop
  endfacet
  facet normal -0.587785 0.809017 0
    outer loop
      vertex -31.6 19.399 0
      vertex -35.3885 16.6464 30.62
      vertex -31.6 19.399 30.62
    endloop
  endfacet
  facet normal -0.587785 0.809017 0
    outer loop
      vertex -35.3885 16.6464 30.62
      vertex -31.6 19.399 0
      vertex -35.3885 16.6464 0
    endloop
  endfacet
  facet normal -0.207912 0.978148 0
    outer loop
      vertex -22.7414 22.2773 0
      vertex -27.322 21.3037 30.62
      vertex -22.7414 22.2773 30.62
    endloop
  endfacet
  facet normal -0.207912 0.978148 0
    outer loop
      vertex -27.322 21.3037 30.62
      vertex -22.7414 22.2773 0
      vertex -27.322 21.3037 0
    endloop
  endfacet
  facet normal 0.994522 -0.104528 0
    outer loop
      vertex 1.95 -0.475714 30.62
      vertex 2 0 0
      vertex 2 0 30.62
    endloop
  endfacet
  facet normal 0.994522 -0.104528 0
    outer loop
      vertex 2 0 0
      vertex 1.95 -0.475714 30.62
      vertex 1.95 -0.475714 0
    endloop
  endfacet
  facet normal 0.743145 -0.669131 0
    outer loop
      vertex -5.41147 -16.6464 30.62
      vertex -2.27802 -13.1664 0
      vertex -2.27802 -13.1664 30.62
    endloop
  endfacet
  facet normal 0.743145 -0.669131 0
    outer loop
      vertex -2.27802 -13.1664 0
      vertex -5.41147 -16.6464 30.62
      vertex -5.41147 -16.6464 0
    endloop
  endfacet
  facet normal 0.866025 -0.5 0
    outer loop
      vertex -2.27802 -13.1664 30.62
      vertex -0.210754 -9.58578 0
      vertex -0.210754 -9.58578 30.62
    endloop
  endfacet
  facet normal 0.866025 -0.5 0
    outer loop
      vertex -0.210754 -9.58578 0
      vertex -2.27802 -13.1664 30.62
      vertex -2.27802 -13.1664 0
    endloop
  endfacet
  facet normal -0.587785 -0.809017 0
    outer loop
      vertex -35.3885 -16.6464 0
      vertex -31.6 -19.399 30.62
      vertex -35.3885 -16.6464 30.62
    endloop
  endfacet
  facet normal -0.587785 -0.809017 -0
    outer loop
      vertex -31.6 -19.399 30.62
      vertex -35.3885 -16.6464 0
      vertex -31.6 -19.399 0
    endloop
  endfacet
  facet normal -0.866025 -0.5 0
    outer loop
      vertex -38.522 -13.1664 0
      vertex -40.8634 -9.1109 30.62
      vertex -40.8634 -9.1109 0
    endloop
  endfacet
  facet normal -0.866025 -0.5 0
    outer loop
      vertex -40.8634 -9.1109 30.62
      vertex -38.522 -13.1664 0
      vertex -38.522 -13.1664 30.62
    endloop
  endfacet
  facet normal 0.207912 -0.978148 0
    outer loop
      vertex -18.0586 -22.2773 0
      vertex -13.478 -21.3037 30.62
      vertex -18.0586 -22.2773 30.62
    endloop
  endfacet
  facet normal 0.207912 -0.978148 0
    outer loop
      vertex -13.478 -21.3037 30.62
      vertex -18.0586 -22.2773 0
      vertex -13.478 -21.3037 0
    endloop
  endfacet
  facet normal 0.587785 -0.809017 0
    outer loop
      vertex -9.2 -19.399 0
      vertex -5.41147 -16.6464 30.62
      vertex -9.2 -19.399 30.62
    endloop
  endfacet
  facet normal 0.587785 -0.809017 0
    outer loop
      vertex -5.41147 -16.6464 30.62
      vertex -9.2 -19.399 0
      vertex -5.41147 -16.6464 0
    endloop
  endfacet
  facet normal -0.743145 -0.669131 0
    outer loop
      vertex -35.3885 -16.6464 0
      vertex -38.522 -13.1664 30.62
      vertex -38.522 -13.1664 0
    endloop
  endfacet
  facet normal -0.743145 -0.669131 0
    outer loop
      vertex -38.522 -13.1664 30.62
      vertex -35.3885 -16.6464 0
      vertex -35.3885 -16.6464 30.62
    endloop
  endfacet
  facet normal -0.951057 -0.309017 0
    outer loop
      vertex -40.8634 -9.1109 0
      vertex -42.3105 -4.65722 30.62
      vertex -42.3105 -4.65722 0
    endloop
  endfacet
  facet normal -0.951057 -0.309017 0
    outer loop
      vertex -42.3105 -4.65722 30.62
      vertex -40.8634 -9.1109 0
      vertex -40.8634 -9.1109 30.62
    endloop
  endfacet
  facet normal -0.994522 -0.104529 0
    outer loop
      vertex -42.3105 -4.65722 0
      vertex -42.8 0 30.62
      vertex -42.8 0 0
    endloop
  endfacet
  facet normal -0.994522 -0.104529 0
    outer loop
      vertex -42.8 0 30.62
      vertex -42.3105 -4.65722 0
      vertex -42.3105 -4.65722 30.62
    endloop
  endfacet
  facet normal 0.406737 -0.913545 0
    outer loop
      vertex -13.478 -21.3037 0
      vertex -9.2 -19.399 30.62
      vertex -13.478 -21.3037 30.62
    endloop
  endfacet
  facet normal 0.406737 -0.913545 0
    outer loop
      vertex -9.2 -19.399 30.62
      vertex -13.478 -21.3037 0
      vertex -9.2 -19.399 0
    endloop
  endfacet
  facet normal -0.406737 -0.913545 0
    outer loop
      vertex -31.6 -19.399 0
      vertex -27.322 -21.3037 30.62
      vertex -31.6 -19.399 30.62
    endloop
  endfacet
  facet normal -0.406737 -0.913545 -0
    outer loop
      vertex -27.322 -21.3037 30.62
      vertex -31.6 -19.399 0
      vertex -27.322 -21.3037 0
    endloop
  endfacet
  facet normal -0.207912 -0.978148 0
    outer loop
      vertex -27.322 -21.3037 0
      vertex -22.7414 -22.2773 30.62
      vertex -27.322 -21.3037 30.62
    endloop
  endfacet
  facet normal -0.207912 -0.978148 -0
    outer loop
      vertex -22.7414 -22.2773 30.62
      vertex -27.322 -21.3037 0
      vertex -22.7414 -22.2773 0
    endloop
  endfacet
  facet normal -0.994522 0.104529 0
    outer loop
      vertex -2 0 5.62
      vertex -1.95 0.475717 30.62
      vertex -1.95 0.475717 5.62
    endloop
  endfacet
  facet normal -0.994522 0.104529 0
    outer loop
      vertex -1.95 0.475717 30.62
      vertex -2 0 5.62
      vertex -2 0 30.62
    endloop
  endfacet
  facet normal 0 1 -0
    outer loop
      vertex 30.0313 28.8411 0
      vertex 23.9687 28.8411 30.62
      vertex 30.0313 28.8411 30.62
    endloop
  endfacet
  facet normal 0 1 0
    outer loop
      vertex 23.9687 28.8411 30.62
      vertex 30.0313 28.8411 0
      vertex 23.9687 28.8411 0
    endloop
  endfacet
  facet normal 0 -1 0
    outer loop
      vertex 23.9687 -28.8411 0
      vertex 30.0313 -28.8411 30.62
      vertex 23.9687 -28.8411 30.62
    endloop
  endfacet
  facet normal 0 -1 -0
    outer loop
      vertex 30.0313 -28.8411 30.62
      vertex 23.9687 -28.8411 0
      vertex 30.0313 -28.8411 0
    endloop
  endfacet
  facet normal 0.587785 0.809017 -0
    outer loop
      vertex 44.2 23.1531 0
      vertex 41.5 25.1147 30.62
      vertex 44.2 23.1531 30.62
    endloop
  endfacet
  facet normal 0.587785 0.809017 0
    outer loop
      vertex 41.5 25.1147 30.62
      vertex 44.2 23.1531 0
      vertex 41.5 25.1147 0
    endloop
  endfacet
  facet normal 0.406737 0.913545 -0
    outer loop
      vertex 41.5 25.1147 0
      vertex 35.9615 27.5806 30.62
      vertex 41.5 25.1147 30.62
    endloop
  endfacet
  facet normal 0.406737 0.913545 0
    outer loop
      vertex 35.9615 27.5806 30.62
      vertex 41.5 25.1147 0
      vertex 35.9615 27.5806 0
    endloop
  endfacet
  facet normal -0.587785 0.809017 0
    outer loop
      vertex 12.5 25.1147 0
      vertex 7.59521 21.5512 30.62
      vertex 12.5 25.1147 30.62
    endloop
  endfacet
  facet normal -0.587785 0.809017 0
    outer loop
      vertex 7.59521 21.5512 30.62
      vertex 12.5 25.1147 0
      vertex 7.59521 21.5512 0
    endloop
  endfacet
  facet normal -0.207911 0.978148 0
    outer loop
      vertex 23.9687 28.8411 0
      vertex 18.0385 27.5806 30.62
      vertex 23.9687 28.8411 30.62
    endloop
  endfacet
  facet normal -0.207911 0.978148 0
    outer loop
      vertex 18.0385 27.5806 30.62
      vertex 23.9687 28.8411 0
      vertex 18.0385 27.5806 0
    endloop
  endfacet
  facet normal 0.207911 0.978148 -0
    outer loop
      vertex 35.9615 27.5806 0
      vertex 30.0313 28.8411 30.62
      vertex 35.9615 27.5806 30.62
    endloop
  endfacet
  facet normal 0.207911 0.978148 0
    outer loop
      vertex 30.0313 28.8411 30.62
      vertex 35.9615 27.5806 0
      vertex 30.0313 28.8411 0
    endloop
  endfacet
  facet normal -0.866025 0.5 0
    outer loop
      vertex 0.507182 11.7954 0
      vertex 3.53851 17.0458 30.62
      vertex 3.53851 17.0458 0
    endloop
  endfacet
  facet normal -0.866025 0.5 0
    outer loop
      vertex 3.53851 17.0458 30.62
      vertex 0.507182 11.7954 0
      vertex 0.507182 11.7954 30.62
    endloop
  endfacet
  facet normal -0.743145 0.669131 0
    outer loop
      vertex 3.53851 17.0458 0
      vertex 7.59521 21.5512 30.62
      vertex 7.59521 21.5512 0
    endloop
  endfacet
  facet normal -0.743145 0.669131 0
    outer loop
      vertex 7.59521 21.5512 30.62
      vertex 3.53851 17.0458 0
      vertex 3.53851 17.0458 30.62
    endloop
  endfacet
  facet normal -0.951057 0.309017 0
    outer loop
      vertex -0.210754 9.58578 0
      vertex 0.507182 11.7954 30.62
      vertex 0.507182 11.7954 0
    endloop
  endfacet
  facet normal -0.951057 0.309017 0
    outer loop
      vertex 0.507182 11.7954 30.62
      vertex -0.210754 9.58578 0
      vertex -0.210754 9.58578 30.62
    endloop
  endfacet
  facet normal -0.406737 0.913545 0
    outer loop
      vertex 18.0385 27.5806 0
      vertex 12.5 25.1147 30.62
      vertex 18.0385 27.5806 30.62
    endloop
  endfacet
  facet normal -0.406737 0.913545 0
    outer loop
      vertex 12.5 25.1147 30.62
      vertex 18.0385 27.5806 0
      vertex 12.5 25.1147 0
    endloop
  endfacet
  facet normal 0.207911 -0.978148 0
    outer loop
      vertex 30.0313 -28.8411 0
      vertex 35.9615 -27.5806 30.62
      vertex 30.0313 -28.8411 30.62
    endloop
  endfacet
  facet normal 0.207911 -0.978148 0
    outer loop
      vertex 35.9615 -27.5806 30.62
      vertex 30.0313 -28.8411 0
      vertex 35.9615 -27.5806 0
    endloop
  endfacet
  facet normal -0.587785 -0.809017 0
    outer loop
      vertex 7.59521 -21.5512 0
      vertex 12.5 -25.1147 30.62
      vertex 7.59521 -21.5512 30.62
    endloop
  endfacet
  facet normal -0.587785 -0.809017 -0
    outer loop
      vertex 12.5 -25.1147 30.62
      vertex 7.59521 -21.5512 0
      vertex 12.5 -25.1147 0
    endloop
  endfacet
  facet normal -0.866025 -0.5 0
    outer loop
      vertex 3.53851 -17.0458 0
      vertex 0.507182 -11.7954 30.62
      vertex 0.507182 -11.7954 0
    endloop
  endfacet
  facet normal -0.866025 -0.5 0
    outer loop
      vertex 0.507182 -11.7954 30.62
      vertex 3.53851 -17.0458 0
      vertex 3.53851 -17.0458 30.62
    endloop
  endfacet
  facet normal -0.743145 -0.669131 0
    outer loop
      vertex 7.59521 -21.5512 0
      vertex 3.53851 -17.0458 30.62
      vertex 3.53851 -17.0458 0
    endloop
  endfacet
  facet normal -0.743145 -0.669131 0
    outer loop
      vertex 3.53851 -17.0458 30.62
      vertex 7.59521 -21.5512 0
      vertex 7.59521 -21.5512 30.62
    endloop
  endfacet
  facet normal 0.587785 -0.809017 0
    outer loop
      vertex 41.5 -25.1147 0
      vertex 44.2 -23.1531 30.62
      vertex 41.5 -25.1147 30.62
    endloop
  endfacet
  facet normal 0.587785 -0.809017 0
    outer loop
      vertex 44.2 -23.1531 30.62
      vertex 41.5 -25.1147 0
      vertex 44.2 -23.1531 0
    endloop
  endfacet
  facet normal 0.406737 -0.913545 0
    outer loop
      vertex 35.9615 -27.5806 0
      vertex 41.5 -25.1147 30.62
      vertex 35.9615 -27.5806 30.62
    endloop
  endfacet
  facet normal 0.406737 -0.913545 0
    outer loop
      vertex 41.5 -25.1147 30.62
      vertex 35.9615 -27.5806 0
      vertex 41.5 -25.1147 0
    endloop
  endfacet
  facet normal -0.207911 -0.978148 0
    outer loop
      vertex 18.0385 -27.5806 0
      vertex 23.9687 -28.8411 30.62
      vertex 18.0385 -27.5806 30.62
    endloop
  endfacet
  facet normal -0.207911 -0.978148 -0
    outer loop
      vertex 23.9687 -28.8411 30.62
      vertex 18.0385 -27.5806 0
      vertex 23.9687 -28.8411 0
    endloop
  endfacet
  facet normal -0.951057 -0.309017 0
    outer loop
      vertex 0.507182 -11.7954 0
      vertex -0.210754 -9.58578 30.62
      vertex -0.210754 -9.58578 0
    endloop
  endfacet
  facet normal -0.951057 -0.309017 0
    outer loop
      vertex -0.210754 -9.58578 30.62
      vertex 0.507182 -11.7954 0
      vertex 0.507182 -11.7954 30.62
    endloop
  endfacet
  facet normal -0.994522 -0.104529 0
    outer loop
      vertex -1.95 -0.475717 5.62
      vertex -2 0 30.62
      vertex -2 0 5.62
    endloop
  endfacet
  facet normal -0.994522 -0.104529 0
    outer loop
      vertex -2 0 30.62
      vertex -1.95 -0.475717 5.62
      vertex -1.95 -0.475717 30.62
    endloop
  endfacet
  facet normal -0.406737 -0.913545 0
    outer loop
      vertex 12.5 -25.1147 0
      vertex 18.0385 -27.5806 30.62
      vertex 12.5 -25.1147 30.62
    endloop
  endfacet
  facet normal -0.406737 -0.913545 -0
    outer loop
      vertex 18.0385 -27.5806 30.62
      vertex 12.5 -25.1147 0
      vertex 18.0385 -27.5806 0
    endloop
  endfacet
  facet normal 0.994522 -0.104528 0
    outer loop
      vertex 1.95 0.475714 30.62
      vertex 2.4485 5.21858 0
      vertex 2.4485 5.21858 30.62
    endloop
  endfacet
  facet normal 0.994522 -0.104528 0
    outer loop
      vertex 2.4485 5.21858 0
      vertex 1.95 0.475714 30.62
      vertex 1.95 0.475714 0
    endloop
  endfacet
  facet normal 0 -1 0
    outer loop
      vertex 24.3763 24.9625 0
      vertex 29.6237 24.9625 30.62
      vertex 24.3763 24.9625 30.62
    endloop
  endfacet
  facet normal 0 -1 -0
    outer loop
      vertex 29.6237 24.9625 30.62
      vertex 24.3763 24.9625 0
      vertex 29.6237 24.9625 0
    endloop
  endfacet
  facet normal 0 1 -0
    outer loop
      vertex 29.6237 -24.9625 0
      vertex 24.3763 -24.9625 30.62
      vertex 29.6237 -24.9625 30.62
    endloop
  endfacet
  facet normal 0 1 0
    outer loop
      vertex 24.3763 -24.9625 30.62
      vertex 29.6237 -24.9625 0
      vertex 24.3763 -24.9625 0
    endloop
  endfacet
  facet normal -0.743144 -0.669132 0
    outer loop
      vertex 44.2 18.2033 0
      vertex 43.7952 18.6529 30.62
      vertex 43.7952 18.6529 0
    endloop
  endfacet
  facet normal -0.743144 -0.669132 0
    outer loop
      vertex 43.7952 18.6529 30.62
      vertex 44.2 18.2033 0
      vertex 44.2 18.2033 30.62
    endloop
  endfacet
  facet normal 0.587785 -0.809017 0
    outer loop
      vertex 10.2048 18.6529 0
      vertex 14.45 21.7372 30.62
      vertex 10.2048 18.6529 30.62
    endloop
  endfacet
  facet normal 0.587785 -0.809017 0
    outer loop
      vertex 14.45 21.7372 30.62
      vertex 10.2048 18.6529 0
      vertex 14.45 21.7372 0
    endloop
  endfacet
  facet normal 0.207912 -0.978148 0
    outer loop
      vertex 19.2437 23.8715 0
      vertex 24.3763 24.9625 30.62
      vertex 19.2437 23.8715 30.62
    endloop
  endfacet
  facet normal 0.207912 -0.978148 0
    outer loop
      vertex 24.3763 24.9625 30.62
      vertex 19.2437 23.8715 0
      vertex 24.3763 24.9625 0
    endloop
  endfacet
  facet normal -0.406737 -0.913545 0
    outer loop
      vertex 34.7563 23.8715 0
      vertex 39.55 21.7372 30.62
      vertex 34.7563 23.8715 30.62
    endloop
  endfacet
  facet normal -0.406737 -0.913545 -0
    outer loop
      vertex 39.55 21.7372 30.62
      vertex 34.7563 23.8715 0
      vertex 39.55 21.7372 0
    endloop
  endfacet
  facet normal -0.207912 -0.978148 0
    outer loop
      vertex 29.6237 24.9625 0
      vertex 34.7563 23.8715 30.62
      vertex 29.6237 24.9625 30.62
    endloop
  endfacet
  facet normal -0.207912 -0.978148 -0
    outer loop
      vertex 34.7563 23.8715 30.62
      vertex 29.6237 24.9625 0
      vertex 34.7563 23.8715 0
    endloop
  endfacet
  facet normal -0.587785 -0.809017 0
    outer loop
      vertex 39.55 21.7372 0
      vertex 43.7952 18.6529 30.62
      vertex 39.55 21.7372 30.62
    endloop
  endfacet
  facet normal -0.587785 -0.809017 -0
    outer loop
      vertex 43.7952 18.6529 30.62
      vertex 39.55 21.7372 0
      vertex 43.7952 18.6529 0
    endloop
  endfacet
  facet normal 0.866025 -0.5 0
    outer loop
      vertex 4.07001 10.2091 30.62
      vertex 6.69367 14.7534 0
      vertex 6.69367 14.7534 30.62
    endloop
  endfacet
  facet normal 0.866025 -0.5 0
    outer loop
      vertex 6.69367 14.7534 0
      vertex 4.07001 10.2091 30.62
      vertex 4.07001 10.2091 0
    endloop
  endfacet
  facet normal 0.743145 -0.669131 0
    outer loop
      vertex 6.69367 14.7534 30.62
      vertex 10.2048 18.6529 0
      vertex 10.2048 18.6529 30.62
    endloop
  endfacet
  facet normal 0.743145 -0.669131 0
    outer loop
      vertex 10.2048 18.6529 0
      vertex 6.69367 14.7534 30.62
      vertex 6.69367 14.7534 0
    endloop
  endfacet
  facet normal 0.951057 -0.309017 0
    outer loop
      vertex 2.4485 5.21858 30.62
      vertex 4.07001 10.2091 0
      vertex 4.07001 10.2091 30.62
    endloop
  endfacet
  facet normal 0.951057 -0.309017 0
    outer loop
      vertex 4.07001 10.2091 0
      vertex 2.4485 5.21858 30.62
      vertex 2.4485 5.21858 0
    endloop
  endfacet
  facet normal 0.406737 -0.913545 0
    outer loop
      vertex 14.45 21.7372 0
      vertex 19.2437 23.8715 30.62
      vertex 14.45 21.7372 30.62
    endloop
  endfacet
  facet normal 0.406737 -0.913545 0
    outer loop
      vertex 19.2437 23.8715 30.62
      vertex 14.45 21.7372 0
      vertex 19.2437 23.8715 0
    endloop
  endfacet
  facet normal -0.207912 0.978148 0
    outer loop
      vertex 34.7563 -23.8715 0
      vertex 29.6237 -24.9625 30.62
      vertex 34.7563 -23.8715 30.62
    endloop
  endfacet
  facet normal -0.207912 0.978148 0
    outer loop
      vertex 29.6237 -24.9625 30.62
      vertex 34.7563 -23.8715 0
      vertex 29.6237 -24.9625 0
    endloop
  endfacet
  facet normal -0.587785 0.809017 0
    outer loop
      vertex 43.7952 -18.6529 0
      vertex 39.55 -21.7372 30.62
      vertex 43.7952 -18.6529 30.62
    endloop
  endfacet
  facet normal -0.587785 0.809017 0
    outer loop
      vertex 39.55 -21.7372 30.62
      vertex 43.7952 -18.6529 0
      vertex 39.55 -21.7372 0
    endloop
  endfacet
  facet normal -0.743144 0.669132 0
    outer loop
      vertex 43.7952 -18.6529 0
      vertex 44.2 -18.2033 30.62
      vertex 44.2 -18.2033 0
    endloop
  endfacet
  facet normal -0.743144 0.669132 0
    outer loop
      vertex 44.2 -18.2033 30.62
      vertex 43.7952 -18.6529 0
      vertex 43.7952 -18.6529 30.62
    endloop
  endfacet
  facet normal 0.866025 0.5 0
    outer loop
      vertex 6.69367 -14.7534 30.62
      vertex 4.07001 -10.2091 0
      vertex 4.07001 -10.2091 30.62
    endloop
  endfacet
  facet normal 0.866025 0.5 0
    outer loop
      vertex 4.07001 -10.2091 0
      vertex 6.69367 -14.7534 30.62
      vertex 6.69367 -14.7534 0
    endloop
  endfacet
  facet normal -0.406737 0.913545 0
    outer loop
      vertex 39.55 -21.7372 0
      vertex 34.7563 -23.8715 30.62
      vertex 39.55 -21.7372 30.62
    endloop
  endfacet
  facet normal -0.406737 0.913545 0
    outer loop
      vertex 34.7563 -23.8715 30.62
      vertex 39.55 -21.7372 0
      vertex 34.7563 -23.8715 0
    endloop
  endfacet
  facet normal 0.207912 0.978148 -0
    outer loop
      vertex 24.3763 -24.9625 0
      vertex 19.2437 -23.8715 30.62
      vertex 24.3763 -24.9625 30.62
    endloop
  endfacet
  facet normal 0.207912 0.978148 0
    outer loop
      vertex 19.2437 -23.8715 30.62
      vertex 24.3763 -24.9625 0
      vertex 19.2437 -23.8715 0
    endloop
  endfacet
  facet normal 0.587785 0.809017 -0
    outer loop
      vertex 14.45 -21.7372 0
      vertex 10.2048 -18.6529 30.62
      vertex 14.45 -21.7372 30.62
    endloop
  endfacet
  facet normal 0.587785 0.809017 0
    outer loop
      vertex 10.2048 -18.6529 30.62
      vertex 14.45 -21.7372 0
      vertex 10.2048 -18.6529 0
    endloop
  endfacet
  facet normal 0.743145 0.669131 0
    outer loop
      vertex 10.2048 -18.6529 30.62
      vertex 6.69367 -14.7534 0
      vertex 6.69367 -14.7534 30.62
    endloop
  endfacet
  facet normal 0.743145 0.669131 0
    outer loop
      vertex 6.69367 -14.7534 0
      vertex 10.2048 -18.6529 30.62
      vertex 10.2048 -18.6529 0
    endloop
  endfacet
  facet normal 0.951057 0.309017 0
    outer loop
      vertex 4.07001 -10.2091 30.62
      vertex 2.4485 -5.21858 0
      vertex 2.4485 -5.21858 30.62
    endloop
  endfacet
  facet normal 0.951057 0.309017 0
    outer loop
      vertex 2.4485 -5.21858 0
      vertex 4.07001 -10.2091 30.62
      vertex 4.07001 -10.2091 0
    endloop
  endfacet
  facet normal 0.994522 0.104528 0
    outer loop
      vertex 2.4485 -5.21858 30.62
      vertex 1.95 -0.475714 0
      vertex 1.95 -0.475714 30.62
    endloop
  endfacet
  facet normal 0.994522 0.104528 0
    outer loop
      vertex 1.95 -0.475714 0
      vertex 2.4485 -5.21858 30.62
      vertex 2.4485 -5.21858 0
    endloop
  endfacet
  facet normal 0.406737 0.913545 -0
    outer loop
      vertex 19.2437 -23.8715 0
      vertex 14.45 -21.7372 30.62
      vertex 19.2437 -23.8715 30.62
    endloop
  endfacet
  facet normal 0.406737 0.913545 0
    outer loop
      vertex 14.45 -21.7372 30.62
      vertex 19.2437 -23.8715 0
      vertex 14.45 -21.7372 0
    endloop
  endfacet
  facet normal 1 -0 0
    outer loop
      vertex 44.2 18.2033 30.62
      vertex 44.2 23.1531 0
      vertex 44.2 23.1531 30.62
    endloop
  endfacet
  facet normal 1 0 0
    outer loop
      vertex 44.2 23.1531 0
      vertex 44.2 18.2033 30.62
      vertex 44.2 18.2033 0
    endloop
  endfacet
  facet normal 1 -0 0
    outer loop
      vertex 44.2 -23.1531 30.62
      vertex 44.2 -18.2033 0
      vertex 44.2 -18.2033 30.62
    endloop
  endfacet
  facet normal 1 0 0
    outer loop
      vertex 44.2 -18.2033 0
      vertex 44.2 -23.1531 30.62
      vertex 44.2 -23.1531 0
    endloop
  endfacet
endsolid OpenSCAD_Model
